G04 MADE WITH FRITZING*
G04 WWW.FRITZING.ORG*
G04 DOUBLE SIDED*
G04 HOLES PLATED*
G04 CONTOUR ON CENTER OF CONTOUR VECTOR*
%ASAXBY*%
%FSLAX23Y23*%
%MOIN*%
%OFA0B0*%
%SFA1.0B1.0*%
%ADD10C,0.070000*%
%ADD11C,0.078000*%
%ADD12C,0.074000*%
%ADD13C,0.075000*%
%ADD14R,0.070000X0.069972*%
%ADD15R,0.075000X0.075000*%
%ADD16C,0.048000*%
%LNCOPPER0*%
G90*
G70*
G54D10*
X984Y632D03*
X1084Y632D03*
X1184Y632D03*
X1284Y632D03*
X1384Y632D03*
X1484Y632D03*
X1584Y632D03*
X1684Y632D03*
X1784Y632D03*
X1884Y632D03*
X1984Y632D03*
X2084Y632D03*
X2184Y632D03*
X2284Y632D03*
X2384Y632D03*
X984Y1232D03*
X1084Y1232D03*
X1184Y1232D03*
X1284Y1232D03*
X1384Y1232D03*
X1484Y1232D03*
X1584Y1232D03*
X1684Y1232D03*
X1784Y1232D03*
X1884Y1232D03*
X1984Y1232D03*
X2084Y1232D03*
X2184Y1232D03*
X2284Y1232D03*
X2384Y1232D03*
G54D11*
X185Y1057D03*
X185Y957D03*
X185Y857D03*
X185Y757D03*
G54D12*
X310Y1332D03*
X510Y1332D03*
G54D13*
X510Y807D03*
X510Y907D03*
X985Y1032D03*
X1385Y1032D03*
X985Y932D03*
X1385Y932D03*
X985Y832D03*
X1385Y832D03*
G54D11*
X1285Y132D03*
X1385Y132D03*
X1485Y132D03*
X1585Y132D03*
X1285Y132D03*
X1385Y132D03*
X1485Y132D03*
X1585Y132D03*
X985Y1807D03*
X1085Y1807D03*
X1185Y1807D03*
X1385Y1457D03*
X1485Y1457D03*
X1585Y1457D03*
X1685Y1457D03*
X1785Y1457D03*
X1885Y1457D03*
X1985Y1457D03*
X2085Y1457D03*
X1785Y407D03*
X1885Y407D03*
X1985Y407D03*
X2085Y407D03*
X2185Y407D03*
X2285Y407D03*
X2385Y407D03*
X1185Y132D03*
G54D14*
X984Y632D03*
G54D15*
X510Y807D03*
G54D16*
X185Y1038D02*
X185Y976D01*
D02*
X185Y776D02*
X185Y838D01*
D02*
X184Y1232D02*
X297Y1322D01*
D02*
X184Y1076D02*
X184Y1232D01*
D02*
X510Y1316D02*
X510Y925D01*
D02*
X184Y807D02*
X184Y838D01*
D02*
X492Y807D02*
X184Y807D01*
D02*
X1385Y815D02*
X1384Y650D01*
D02*
X985Y950D02*
X985Y1015D01*
D02*
X1436Y932D02*
X1402Y932D01*
D02*
X1485Y882D02*
X1436Y932D01*
D02*
X1484Y650D02*
X1485Y882D01*
D02*
X1584Y906D02*
X1584Y650D01*
D02*
X1402Y1032D02*
X1459Y1031D01*
D02*
X1459Y1031D02*
X1584Y906D01*
D02*
X1284Y1156D02*
X1284Y1214D01*
D02*
X1185Y1031D02*
X1284Y1156D01*
D02*
X1002Y1032D02*
X1185Y1031D01*
D02*
X985Y915D02*
X985Y850D01*
D02*
X1284Y650D02*
X1284Y682D01*
D02*
X1284Y682D02*
X1235Y731D01*
D02*
X1235Y731D02*
X886Y731D01*
D02*
X586Y731D02*
X522Y795D01*
D02*
X886Y731D02*
X586Y731D01*
D02*
X1285Y151D02*
X1284Y614D01*
D02*
X1385Y151D02*
X1384Y614D01*
D02*
X1485Y151D02*
X1484Y614D01*
D02*
X1585Y151D02*
X1584Y614D01*
D02*
X525Y1332D02*
X985Y1331D01*
D02*
X985Y1331D02*
X984Y1250D01*
D02*
X886Y1083D02*
X935Y1133D01*
D02*
X935Y1133D02*
X1034Y1133D01*
D02*
X1084Y1182D02*
X1084Y1214D01*
D02*
X1034Y1133D02*
X1084Y1182D01*
D02*
X886Y731D02*
X886Y1083D01*
D02*
X985Y1788D02*
X984Y1250D01*
D02*
X1084Y1250D02*
X1085Y1788D01*
D02*
X1983Y1808D02*
X2510Y1331D01*
D02*
X2510Y1331D02*
X2510Y1182D01*
D02*
X2385Y1031D02*
X1934Y1031D01*
D02*
X2510Y1182D02*
X2385Y1031D01*
D02*
X1683Y783D02*
X1684Y650D01*
D02*
X1204Y1807D02*
X1983Y1808D01*
D02*
X1934Y1031D02*
X1683Y783D01*
D02*
X1784Y614D02*
X1785Y426D01*
D02*
X1884Y614D02*
X1885Y426D01*
D02*
X1984Y614D02*
X1985Y426D01*
D02*
X2084Y614D02*
X2085Y426D01*
D02*
X2184Y614D02*
X2185Y426D01*
D02*
X2284Y614D02*
X2285Y426D01*
D02*
X2385Y426D02*
X2384Y614D01*
D02*
X1385Y1438D02*
X1384Y1250D01*
D02*
X1485Y1438D02*
X1484Y1250D01*
D02*
X1585Y1438D02*
X1584Y1250D01*
D02*
X1685Y1438D02*
X1684Y1250D01*
D02*
X1785Y1438D02*
X1784Y1250D01*
D02*
X1885Y1438D02*
X1884Y1250D01*
D02*
X1985Y1438D02*
X1984Y1250D01*
D02*
X2085Y1438D02*
X2084Y1250D01*
D02*
X1266Y132D02*
X1204Y132D01*
G04 End of Copper0*
M02*