; NON-PLATED HOLES START AT T1
; THROUGH (PLATED) HOLES START AT T100
M48
INCH
T1C0.125984
T100C0.036000
T101C0.035000
T102C0.031496
T103C0.038000
%
T1
X001595Y001570
X001595Y018070
X025845Y018070
X025845Y001570
T100
X019842Y012317
X021842Y012317
X013842Y012317
X016842Y006317
X022842Y006317
X023842Y006317
X014842Y012317
X023842Y012317
X015842Y012317
X011842Y012317
X009842Y006317
X017842Y012317
X012842Y006317
X013842Y006317
X011842Y006317
X012842Y012317
X020842Y006317
X010842Y006317
X015842Y006317
X018842Y006317
X016842Y012317
X019842Y006317
X021842Y006317
X022842Y012317
X010842Y012317
X009842Y012317
X018842Y012317
X017842Y006317
X014842Y006317
X020842Y012317
T101
X009845Y010320
X005095Y009070
X013845Y009320
X009845Y008320
X013845Y008320
X005095Y008070
X009845Y009320
X013845Y010320
T102
X003095Y013320
X005095Y013320
T103
X020845Y014570
X015845Y001320
X001845Y010570
X001845Y008570
X018845Y014570
X019845Y014570
X001845Y009570
X015845Y014570
X018845Y004070
X009845Y018070
X012845Y001320
X021845Y004070
X014845Y001320
X011845Y001320
X013845Y014570
X016845Y014570
X020845Y004070
X022845Y004070
X014845Y014570
X001845Y007570
X010845Y018070
X023845Y004070
X011845Y018070
X019845Y004070
X017845Y004070
X017845Y014570
X013845Y001320
T00
M30
