G04 MADE WITH FRITZING*
G04 WWW.FRITZING.ORG*
G04 DOUBLE SIDED*
G04 HOLES PLATED*
G04 CONTOUR ON CENTER OF CONTOUR VECTOR*
%ASAXBY*%
%FSLAX23Y23*%
%MOIN*%
%OFA0B0*%
%SFA1.0B1.0*%
%ADD10C,0.010000*%
%ADD11R,0.001000X0.001000*%
%LNSILK0*%
G90*
G70*
G54D10*
X1235Y182D02*
X1635Y182D01*
D02*
X1635Y182D02*
X1635Y82D01*
D02*
X1635Y82D02*
X1235Y82D01*
D02*
X1235Y82D02*
X1235Y182D01*
G54D11*
X1Y1968D02*
X2755Y1968D01*
X1Y1967D02*
X2755Y1967D01*
X1Y1966D02*
X2755Y1966D01*
X1Y1965D02*
X2755Y1965D01*
X1Y1964D02*
X2755Y1964D01*
X1Y1963D02*
X2755Y1963D01*
X1Y1962D02*
X2755Y1962D01*
X1Y1961D02*
X2755Y1961D01*
X1Y1960D02*
X8Y1960D01*
X2748Y1960D02*
X2755Y1960D01*
X1Y1959D02*
X8Y1959D01*
X2748Y1959D02*
X2755Y1959D01*
X1Y1958D02*
X8Y1958D01*
X2748Y1958D02*
X2755Y1958D01*
X1Y1957D02*
X8Y1957D01*
X2748Y1957D02*
X2755Y1957D01*
X1Y1956D02*
X8Y1956D01*
X2748Y1956D02*
X2755Y1956D01*
X1Y1955D02*
X8Y1955D01*
X2748Y1955D02*
X2755Y1955D01*
X1Y1954D02*
X8Y1954D01*
X2748Y1954D02*
X2755Y1954D01*
X1Y1953D02*
X8Y1953D01*
X2748Y1953D02*
X2755Y1953D01*
X1Y1952D02*
X8Y1952D01*
X2748Y1952D02*
X2755Y1952D01*
X1Y1951D02*
X8Y1951D01*
X2748Y1951D02*
X2755Y1951D01*
X1Y1950D02*
X8Y1950D01*
X2748Y1950D02*
X2755Y1950D01*
X1Y1949D02*
X8Y1949D01*
X2748Y1949D02*
X2755Y1949D01*
X1Y1948D02*
X8Y1948D01*
X2748Y1948D02*
X2755Y1948D01*
X1Y1947D02*
X8Y1947D01*
X2748Y1947D02*
X2755Y1947D01*
X1Y1946D02*
X8Y1946D01*
X2748Y1946D02*
X2755Y1946D01*
X1Y1945D02*
X8Y1945D01*
X2748Y1945D02*
X2755Y1945D01*
X1Y1944D02*
X8Y1944D01*
X2748Y1944D02*
X2755Y1944D01*
X1Y1943D02*
X8Y1943D01*
X2748Y1943D02*
X2755Y1943D01*
X1Y1942D02*
X8Y1942D01*
X2748Y1942D02*
X2755Y1942D01*
X1Y1941D02*
X8Y1941D01*
X2748Y1941D02*
X2755Y1941D01*
X1Y1940D02*
X8Y1940D01*
X2748Y1940D02*
X2755Y1940D01*
X1Y1939D02*
X8Y1939D01*
X2748Y1939D02*
X2755Y1939D01*
X1Y1938D02*
X8Y1938D01*
X2748Y1938D02*
X2755Y1938D01*
X1Y1937D02*
X8Y1937D01*
X2748Y1937D02*
X2755Y1937D01*
X1Y1936D02*
X8Y1936D01*
X2748Y1936D02*
X2755Y1936D01*
X1Y1935D02*
X8Y1935D01*
X2748Y1935D02*
X2755Y1935D01*
X1Y1934D02*
X8Y1934D01*
X2748Y1934D02*
X2755Y1934D01*
X1Y1933D02*
X8Y1933D01*
X2748Y1933D02*
X2755Y1933D01*
X1Y1932D02*
X8Y1932D01*
X2748Y1932D02*
X2755Y1932D01*
X1Y1931D02*
X8Y1931D01*
X2748Y1931D02*
X2755Y1931D01*
X1Y1930D02*
X8Y1930D01*
X2748Y1930D02*
X2755Y1930D01*
X1Y1929D02*
X8Y1929D01*
X2748Y1929D02*
X2755Y1929D01*
X1Y1928D02*
X8Y1928D01*
X2748Y1928D02*
X2755Y1928D01*
X1Y1927D02*
X8Y1927D01*
X2748Y1927D02*
X2755Y1927D01*
X1Y1926D02*
X8Y1926D01*
X2748Y1926D02*
X2755Y1926D01*
X1Y1925D02*
X8Y1925D01*
X2748Y1925D02*
X2755Y1925D01*
X1Y1924D02*
X8Y1924D01*
X2748Y1924D02*
X2755Y1924D01*
X1Y1923D02*
X8Y1923D01*
X2748Y1923D02*
X2755Y1923D01*
X1Y1922D02*
X8Y1922D01*
X2748Y1922D02*
X2755Y1922D01*
X1Y1921D02*
X8Y1921D01*
X2748Y1921D02*
X2755Y1921D01*
X1Y1920D02*
X8Y1920D01*
X2748Y1920D02*
X2755Y1920D01*
X1Y1919D02*
X8Y1919D01*
X2748Y1919D02*
X2755Y1919D01*
X1Y1918D02*
X8Y1918D01*
X2748Y1918D02*
X2755Y1918D01*
X1Y1917D02*
X8Y1917D01*
X2748Y1917D02*
X2755Y1917D01*
X1Y1916D02*
X8Y1916D01*
X2748Y1916D02*
X2755Y1916D01*
X1Y1915D02*
X8Y1915D01*
X2748Y1915D02*
X2755Y1915D01*
X1Y1914D02*
X8Y1914D01*
X2748Y1914D02*
X2755Y1914D01*
X1Y1913D02*
X8Y1913D01*
X2748Y1913D02*
X2755Y1913D01*
X1Y1912D02*
X8Y1912D01*
X2748Y1912D02*
X2755Y1912D01*
X1Y1911D02*
X8Y1911D01*
X2748Y1911D02*
X2755Y1911D01*
X1Y1910D02*
X8Y1910D01*
X2748Y1910D02*
X2755Y1910D01*
X1Y1909D02*
X8Y1909D01*
X2748Y1909D02*
X2755Y1909D01*
X1Y1908D02*
X8Y1908D01*
X2748Y1908D02*
X2755Y1908D01*
X1Y1907D02*
X8Y1907D01*
X2748Y1907D02*
X2755Y1907D01*
X1Y1906D02*
X8Y1906D01*
X2748Y1906D02*
X2755Y1906D01*
X1Y1905D02*
X8Y1905D01*
X2748Y1905D02*
X2755Y1905D01*
X1Y1904D02*
X8Y1904D01*
X2748Y1904D02*
X2755Y1904D01*
X1Y1903D02*
X8Y1903D01*
X2748Y1903D02*
X2755Y1903D01*
X1Y1902D02*
X8Y1902D01*
X2748Y1902D02*
X2755Y1902D01*
X1Y1901D02*
X8Y1901D01*
X2748Y1901D02*
X2755Y1901D01*
X1Y1900D02*
X8Y1900D01*
X2748Y1900D02*
X2755Y1900D01*
X1Y1899D02*
X8Y1899D01*
X2748Y1899D02*
X2755Y1899D01*
X1Y1898D02*
X8Y1898D01*
X2748Y1898D02*
X2755Y1898D01*
X1Y1897D02*
X8Y1897D01*
X2748Y1897D02*
X2755Y1897D01*
X1Y1896D02*
X8Y1896D01*
X2748Y1896D02*
X2755Y1896D01*
X1Y1895D02*
X8Y1895D01*
X2748Y1895D02*
X2755Y1895D01*
X1Y1894D02*
X8Y1894D01*
X2748Y1894D02*
X2755Y1894D01*
X1Y1893D02*
X8Y1893D01*
X2748Y1893D02*
X2755Y1893D01*
X1Y1892D02*
X8Y1892D01*
X2748Y1892D02*
X2755Y1892D01*
X1Y1891D02*
X8Y1891D01*
X2748Y1891D02*
X2755Y1891D01*
X1Y1890D02*
X8Y1890D01*
X2748Y1890D02*
X2755Y1890D01*
X1Y1889D02*
X8Y1889D01*
X2748Y1889D02*
X2755Y1889D01*
X1Y1888D02*
X8Y1888D01*
X2748Y1888D02*
X2755Y1888D01*
X1Y1887D02*
X8Y1887D01*
X2748Y1887D02*
X2755Y1887D01*
X1Y1886D02*
X8Y1886D01*
X2748Y1886D02*
X2755Y1886D01*
X1Y1885D02*
X8Y1885D01*
X2748Y1885D02*
X2755Y1885D01*
X1Y1884D02*
X8Y1884D01*
X2748Y1884D02*
X2755Y1884D01*
X1Y1883D02*
X8Y1883D01*
X2748Y1883D02*
X2755Y1883D01*
X1Y1882D02*
X8Y1882D01*
X2748Y1882D02*
X2755Y1882D01*
X1Y1881D02*
X8Y1881D01*
X2748Y1881D02*
X2755Y1881D01*
X1Y1880D02*
X8Y1880D01*
X2748Y1880D02*
X2755Y1880D01*
X1Y1879D02*
X8Y1879D01*
X2748Y1879D02*
X2755Y1879D01*
X1Y1878D02*
X8Y1878D01*
X2748Y1878D02*
X2755Y1878D01*
X1Y1877D02*
X8Y1877D01*
X2748Y1877D02*
X2755Y1877D01*
X1Y1876D02*
X8Y1876D01*
X2748Y1876D02*
X2755Y1876D01*
X1Y1875D02*
X8Y1875D01*
X2748Y1875D02*
X2755Y1875D01*
X1Y1874D02*
X8Y1874D01*
X2748Y1874D02*
X2755Y1874D01*
X1Y1873D02*
X8Y1873D01*
X2748Y1873D02*
X2755Y1873D01*
X1Y1872D02*
X8Y1872D01*
X2748Y1872D02*
X2755Y1872D01*
X1Y1871D02*
X8Y1871D01*
X2748Y1871D02*
X2755Y1871D01*
X1Y1870D02*
X8Y1870D01*
X2748Y1870D02*
X2755Y1870D01*
X1Y1869D02*
X8Y1869D01*
X2748Y1869D02*
X2755Y1869D01*
X1Y1868D02*
X8Y1868D01*
X2748Y1868D02*
X2755Y1868D01*
X1Y1867D02*
X8Y1867D01*
X2748Y1867D02*
X2755Y1867D01*
X1Y1866D02*
X8Y1866D01*
X2748Y1866D02*
X2755Y1866D01*
X1Y1865D02*
X8Y1865D01*
X2748Y1865D02*
X2755Y1865D01*
X1Y1864D02*
X8Y1864D01*
X2748Y1864D02*
X2755Y1864D01*
X1Y1863D02*
X8Y1863D01*
X2748Y1863D02*
X2755Y1863D01*
X1Y1862D02*
X8Y1862D01*
X2748Y1862D02*
X2755Y1862D01*
X1Y1861D02*
X8Y1861D01*
X2748Y1861D02*
X2755Y1861D01*
X1Y1860D02*
X8Y1860D01*
X2748Y1860D02*
X2755Y1860D01*
X1Y1859D02*
X8Y1859D01*
X2748Y1859D02*
X2755Y1859D01*
X1Y1858D02*
X8Y1858D01*
X2748Y1858D02*
X2755Y1858D01*
X1Y1857D02*
X8Y1857D01*
X2748Y1857D02*
X2755Y1857D01*
X1Y1856D02*
X8Y1856D01*
X2748Y1856D02*
X2755Y1856D01*
X1Y1855D02*
X8Y1855D01*
X2748Y1855D02*
X2755Y1855D01*
X1Y1854D02*
X8Y1854D01*
X2748Y1854D02*
X2755Y1854D01*
X1Y1853D02*
X8Y1853D01*
X2748Y1853D02*
X2755Y1853D01*
X1Y1852D02*
X8Y1852D01*
X2748Y1852D02*
X2755Y1852D01*
X1Y1851D02*
X8Y1851D01*
X2748Y1851D02*
X2755Y1851D01*
X1Y1850D02*
X8Y1850D01*
X2748Y1850D02*
X2755Y1850D01*
X1Y1849D02*
X8Y1849D01*
X2748Y1849D02*
X2755Y1849D01*
X1Y1848D02*
X8Y1848D01*
X2748Y1848D02*
X2755Y1848D01*
X1Y1847D02*
X8Y1847D01*
X2748Y1847D02*
X2755Y1847D01*
X1Y1846D02*
X8Y1846D01*
X2748Y1846D02*
X2755Y1846D01*
X1Y1845D02*
X8Y1845D01*
X2748Y1845D02*
X2755Y1845D01*
X1Y1844D02*
X8Y1844D01*
X2748Y1844D02*
X2755Y1844D01*
X1Y1843D02*
X8Y1843D01*
X2748Y1843D02*
X2755Y1843D01*
X1Y1842D02*
X8Y1842D01*
X2748Y1842D02*
X2755Y1842D01*
X1Y1841D02*
X8Y1841D01*
X2748Y1841D02*
X2755Y1841D01*
X1Y1840D02*
X8Y1840D01*
X2748Y1840D02*
X2755Y1840D01*
X1Y1839D02*
X8Y1839D01*
X2748Y1839D02*
X2755Y1839D01*
X1Y1838D02*
X8Y1838D01*
X2748Y1838D02*
X2755Y1838D01*
X1Y1837D02*
X8Y1837D01*
X2748Y1837D02*
X2755Y1837D01*
X1Y1836D02*
X8Y1836D01*
X2748Y1836D02*
X2755Y1836D01*
X1Y1835D02*
X8Y1835D01*
X2748Y1835D02*
X2755Y1835D01*
X1Y1834D02*
X8Y1834D01*
X2748Y1834D02*
X2755Y1834D01*
X1Y1833D02*
X8Y1833D01*
X2748Y1833D02*
X2755Y1833D01*
X1Y1832D02*
X8Y1832D01*
X2748Y1832D02*
X2755Y1832D01*
X1Y1831D02*
X8Y1831D01*
X2748Y1831D02*
X2755Y1831D01*
X1Y1830D02*
X8Y1830D01*
X2748Y1830D02*
X2755Y1830D01*
X1Y1829D02*
X8Y1829D01*
X2748Y1829D02*
X2755Y1829D01*
X1Y1828D02*
X8Y1828D01*
X2748Y1828D02*
X2755Y1828D01*
X1Y1827D02*
X8Y1827D01*
X2748Y1827D02*
X2755Y1827D01*
X1Y1826D02*
X8Y1826D01*
X2748Y1826D02*
X2755Y1826D01*
X1Y1825D02*
X8Y1825D01*
X2748Y1825D02*
X2755Y1825D01*
X1Y1824D02*
X8Y1824D01*
X2748Y1824D02*
X2755Y1824D01*
X1Y1823D02*
X8Y1823D01*
X2748Y1823D02*
X2755Y1823D01*
X1Y1822D02*
X8Y1822D01*
X2748Y1822D02*
X2755Y1822D01*
X1Y1821D02*
X8Y1821D01*
X2748Y1821D02*
X2755Y1821D01*
X1Y1820D02*
X8Y1820D01*
X2748Y1820D02*
X2755Y1820D01*
X1Y1819D02*
X8Y1819D01*
X2748Y1819D02*
X2755Y1819D01*
X1Y1818D02*
X8Y1818D01*
X2748Y1818D02*
X2755Y1818D01*
X1Y1817D02*
X8Y1817D01*
X2748Y1817D02*
X2755Y1817D01*
X1Y1816D02*
X8Y1816D01*
X2748Y1816D02*
X2755Y1816D01*
X1Y1815D02*
X8Y1815D01*
X2748Y1815D02*
X2755Y1815D01*
X1Y1814D02*
X8Y1814D01*
X2748Y1814D02*
X2755Y1814D01*
X1Y1813D02*
X8Y1813D01*
X2748Y1813D02*
X2755Y1813D01*
X1Y1812D02*
X8Y1812D01*
X2748Y1812D02*
X2755Y1812D01*
X1Y1811D02*
X8Y1811D01*
X2748Y1811D02*
X2755Y1811D01*
X1Y1810D02*
X8Y1810D01*
X2748Y1810D02*
X2755Y1810D01*
X1Y1809D02*
X8Y1809D01*
X2748Y1809D02*
X2755Y1809D01*
X1Y1808D02*
X8Y1808D01*
X2748Y1808D02*
X2755Y1808D01*
X1Y1807D02*
X8Y1807D01*
X2748Y1807D02*
X2755Y1807D01*
X1Y1806D02*
X8Y1806D01*
X2748Y1806D02*
X2755Y1806D01*
X1Y1805D02*
X8Y1805D01*
X2748Y1805D02*
X2755Y1805D01*
X1Y1804D02*
X8Y1804D01*
X2748Y1804D02*
X2755Y1804D01*
X1Y1803D02*
X8Y1803D01*
X2748Y1803D02*
X2755Y1803D01*
X1Y1802D02*
X8Y1802D01*
X2748Y1802D02*
X2755Y1802D01*
X1Y1801D02*
X8Y1801D01*
X2748Y1801D02*
X2755Y1801D01*
X1Y1800D02*
X8Y1800D01*
X2748Y1800D02*
X2755Y1800D01*
X1Y1799D02*
X8Y1799D01*
X2748Y1799D02*
X2755Y1799D01*
X1Y1798D02*
X8Y1798D01*
X2748Y1798D02*
X2755Y1798D01*
X1Y1797D02*
X8Y1797D01*
X2748Y1797D02*
X2755Y1797D01*
X1Y1796D02*
X8Y1796D01*
X2748Y1796D02*
X2755Y1796D01*
X1Y1795D02*
X8Y1795D01*
X2748Y1795D02*
X2755Y1795D01*
X1Y1794D02*
X8Y1794D01*
X2748Y1794D02*
X2755Y1794D01*
X1Y1793D02*
X8Y1793D01*
X2748Y1793D02*
X2755Y1793D01*
X1Y1792D02*
X8Y1792D01*
X2748Y1792D02*
X2755Y1792D01*
X1Y1791D02*
X8Y1791D01*
X2748Y1791D02*
X2755Y1791D01*
X1Y1790D02*
X8Y1790D01*
X2748Y1790D02*
X2755Y1790D01*
X1Y1789D02*
X8Y1789D01*
X2748Y1789D02*
X2755Y1789D01*
X1Y1788D02*
X8Y1788D01*
X2748Y1788D02*
X2755Y1788D01*
X1Y1787D02*
X8Y1787D01*
X2748Y1787D02*
X2755Y1787D01*
X1Y1786D02*
X8Y1786D01*
X2748Y1786D02*
X2755Y1786D01*
X1Y1785D02*
X8Y1785D01*
X2748Y1785D02*
X2755Y1785D01*
X1Y1784D02*
X8Y1784D01*
X2748Y1784D02*
X2755Y1784D01*
X1Y1783D02*
X8Y1783D01*
X2748Y1783D02*
X2755Y1783D01*
X1Y1782D02*
X8Y1782D01*
X2748Y1782D02*
X2755Y1782D01*
X1Y1781D02*
X8Y1781D01*
X2748Y1781D02*
X2755Y1781D01*
X1Y1780D02*
X8Y1780D01*
X2748Y1780D02*
X2755Y1780D01*
X1Y1779D02*
X8Y1779D01*
X2748Y1779D02*
X2755Y1779D01*
X1Y1778D02*
X8Y1778D01*
X2748Y1778D02*
X2755Y1778D01*
X1Y1777D02*
X8Y1777D01*
X2748Y1777D02*
X2755Y1777D01*
X1Y1776D02*
X8Y1776D01*
X2748Y1776D02*
X2755Y1776D01*
X1Y1775D02*
X8Y1775D01*
X2748Y1775D02*
X2755Y1775D01*
X1Y1774D02*
X8Y1774D01*
X2748Y1774D02*
X2755Y1774D01*
X1Y1773D02*
X8Y1773D01*
X2748Y1773D02*
X2755Y1773D01*
X1Y1772D02*
X8Y1772D01*
X2748Y1772D02*
X2755Y1772D01*
X1Y1771D02*
X8Y1771D01*
X2748Y1771D02*
X2755Y1771D01*
X1Y1770D02*
X8Y1770D01*
X2748Y1770D02*
X2755Y1770D01*
X1Y1769D02*
X8Y1769D01*
X2748Y1769D02*
X2755Y1769D01*
X1Y1768D02*
X8Y1768D01*
X2748Y1768D02*
X2755Y1768D01*
X1Y1767D02*
X8Y1767D01*
X2748Y1767D02*
X2755Y1767D01*
X1Y1766D02*
X8Y1766D01*
X2748Y1766D02*
X2755Y1766D01*
X1Y1765D02*
X8Y1765D01*
X2748Y1765D02*
X2755Y1765D01*
X1Y1764D02*
X8Y1764D01*
X2748Y1764D02*
X2755Y1764D01*
X1Y1763D02*
X8Y1763D01*
X2748Y1763D02*
X2755Y1763D01*
X1Y1762D02*
X8Y1762D01*
X2748Y1762D02*
X2755Y1762D01*
X1Y1761D02*
X8Y1761D01*
X2748Y1761D02*
X2755Y1761D01*
X1Y1760D02*
X8Y1760D01*
X2748Y1760D02*
X2755Y1760D01*
X1Y1759D02*
X8Y1759D01*
X2748Y1759D02*
X2755Y1759D01*
X1Y1758D02*
X8Y1758D01*
X2748Y1758D02*
X2755Y1758D01*
X1Y1757D02*
X8Y1757D01*
X2748Y1757D02*
X2755Y1757D01*
X1Y1756D02*
X8Y1756D01*
X2748Y1756D02*
X2755Y1756D01*
X1Y1755D02*
X8Y1755D01*
X2748Y1755D02*
X2755Y1755D01*
X1Y1754D02*
X8Y1754D01*
X2748Y1754D02*
X2755Y1754D01*
X1Y1753D02*
X8Y1753D01*
X2748Y1753D02*
X2755Y1753D01*
X1Y1752D02*
X8Y1752D01*
X2748Y1752D02*
X2755Y1752D01*
X1Y1751D02*
X8Y1751D01*
X2748Y1751D02*
X2755Y1751D01*
X1Y1750D02*
X8Y1750D01*
X2748Y1750D02*
X2755Y1750D01*
X1Y1749D02*
X8Y1749D01*
X2748Y1749D02*
X2755Y1749D01*
X1Y1748D02*
X8Y1748D01*
X2748Y1748D02*
X2755Y1748D01*
X1Y1747D02*
X8Y1747D01*
X2748Y1747D02*
X2755Y1747D01*
X1Y1746D02*
X8Y1746D01*
X2748Y1746D02*
X2755Y1746D01*
X1Y1745D02*
X8Y1745D01*
X2748Y1745D02*
X2755Y1745D01*
X1Y1744D02*
X8Y1744D01*
X2748Y1744D02*
X2755Y1744D01*
X1Y1743D02*
X8Y1743D01*
X2748Y1743D02*
X2755Y1743D01*
X1Y1742D02*
X8Y1742D01*
X2748Y1742D02*
X2755Y1742D01*
X1Y1741D02*
X8Y1741D01*
X2748Y1741D02*
X2755Y1741D01*
X1Y1740D02*
X8Y1740D01*
X2748Y1740D02*
X2755Y1740D01*
X1Y1739D02*
X8Y1739D01*
X2748Y1739D02*
X2755Y1739D01*
X1Y1738D02*
X8Y1738D01*
X2748Y1738D02*
X2755Y1738D01*
X1Y1737D02*
X8Y1737D01*
X2748Y1737D02*
X2755Y1737D01*
X1Y1736D02*
X8Y1736D01*
X2748Y1736D02*
X2755Y1736D01*
X1Y1735D02*
X8Y1735D01*
X2748Y1735D02*
X2755Y1735D01*
X1Y1734D02*
X8Y1734D01*
X2748Y1734D02*
X2755Y1734D01*
X1Y1733D02*
X8Y1733D01*
X2748Y1733D02*
X2755Y1733D01*
X1Y1732D02*
X8Y1732D01*
X2748Y1732D02*
X2755Y1732D01*
X1Y1731D02*
X8Y1731D01*
X2748Y1731D02*
X2755Y1731D01*
X1Y1730D02*
X8Y1730D01*
X2748Y1730D02*
X2755Y1730D01*
X1Y1729D02*
X8Y1729D01*
X2748Y1729D02*
X2755Y1729D01*
X1Y1728D02*
X8Y1728D01*
X2748Y1728D02*
X2755Y1728D01*
X1Y1727D02*
X8Y1727D01*
X2748Y1727D02*
X2755Y1727D01*
X1Y1726D02*
X8Y1726D01*
X2748Y1726D02*
X2755Y1726D01*
X1Y1725D02*
X8Y1725D01*
X2748Y1725D02*
X2755Y1725D01*
X1Y1724D02*
X8Y1724D01*
X2748Y1724D02*
X2755Y1724D01*
X1Y1723D02*
X8Y1723D01*
X2748Y1723D02*
X2755Y1723D01*
X1Y1722D02*
X8Y1722D01*
X2748Y1722D02*
X2755Y1722D01*
X1Y1721D02*
X8Y1721D01*
X2748Y1721D02*
X2755Y1721D01*
X1Y1720D02*
X8Y1720D01*
X2748Y1720D02*
X2755Y1720D01*
X1Y1719D02*
X8Y1719D01*
X2748Y1719D02*
X2755Y1719D01*
X1Y1718D02*
X8Y1718D01*
X2748Y1718D02*
X2755Y1718D01*
X1Y1717D02*
X8Y1717D01*
X2748Y1717D02*
X2755Y1717D01*
X1Y1716D02*
X8Y1716D01*
X2748Y1716D02*
X2755Y1716D01*
X1Y1715D02*
X8Y1715D01*
X2748Y1715D02*
X2755Y1715D01*
X1Y1714D02*
X8Y1714D01*
X2748Y1714D02*
X2755Y1714D01*
X1Y1713D02*
X8Y1713D01*
X2748Y1713D02*
X2755Y1713D01*
X1Y1712D02*
X8Y1712D01*
X2748Y1712D02*
X2755Y1712D01*
X1Y1711D02*
X8Y1711D01*
X2748Y1711D02*
X2755Y1711D01*
X1Y1710D02*
X8Y1710D01*
X2748Y1710D02*
X2755Y1710D01*
X1Y1709D02*
X8Y1709D01*
X2748Y1709D02*
X2755Y1709D01*
X1Y1708D02*
X8Y1708D01*
X2748Y1708D02*
X2755Y1708D01*
X1Y1707D02*
X8Y1707D01*
X2748Y1707D02*
X2755Y1707D01*
X1Y1706D02*
X8Y1706D01*
X2748Y1706D02*
X2755Y1706D01*
X1Y1705D02*
X8Y1705D01*
X2748Y1705D02*
X2755Y1705D01*
X1Y1704D02*
X8Y1704D01*
X2748Y1704D02*
X2755Y1704D01*
X1Y1703D02*
X8Y1703D01*
X2748Y1703D02*
X2755Y1703D01*
X1Y1702D02*
X8Y1702D01*
X2748Y1702D02*
X2755Y1702D01*
X1Y1701D02*
X8Y1701D01*
X2748Y1701D02*
X2755Y1701D01*
X1Y1700D02*
X8Y1700D01*
X2748Y1700D02*
X2755Y1700D01*
X1Y1699D02*
X8Y1699D01*
X2748Y1699D02*
X2755Y1699D01*
X1Y1698D02*
X8Y1698D01*
X2748Y1698D02*
X2755Y1698D01*
X1Y1697D02*
X8Y1697D01*
X2748Y1697D02*
X2755Y1697D01*
X1Y1696D02*
X8Y1696D01*
X2748Y1696D02*
X2755Y1696D01*
X1Y1695D02*
X8Y1695D01*
X2748Y1695D02*
X2755Y1695D01*
X1Y1694D02*
X8Y1694D01*
X2748Y1694D02*
X2755Y1694D01*
X1Y1693D02*
X8Y1693D01*
X2748Y1693D02*
X2755Y1693D01*
X1Y1692D02*
X8Y1692D01*
X2748Y1692D02*
X2755Y1692D01*
X1Y1691D02*
X8Y1691D01*
X2748Y1691D02*
X2755Y1691D01*
X1Y1690D02*
X8Y1690D01*
X2748Y1690D02*
X2755Y1690D01*
X1Y1689D02*
X8Y1689D01*
X2748Y1689D02*
X2755Y1689D01*
X1Y1688D02*
X8Y1688D01*
X2748Y1688D02*
X2755Y1688D01*
X1Y1687D02*
X8Y1687D01*
X2748Y1687D02*
X2755Y1687D01*
X1Y1686D02*
X8Y1686D01*
X2748Y1686D02*
X2755Y1686D01*
X1Y1685D02*
X8Y1685D01*
X2748Y1685D02*
X2755Y1685D01*
X1Y1684D02*
X8Y1684D01*
X2748Y1684D02*
X2755Y1684D01*
X1Y1683D02*
X8Y1683D01*
X2748Y1683D02*
X2755Y1683D01*
X1Y1682D02*
X8Y1682D01*
X2748Y1682D02*
X2755Y1682D01*
X1Y1681D02*
X8Y1681D01*
X2748Y1681D02*
X2755Y1681D01*
X1Y1680D02*
X8Y1680D01*
X2748Y1680D02*
X2755Y1680D01*
X1Y1679D02*
X8Y1679D01*
X2748Y1679D02*
X2755Y1679D01*
X1Y1678D02*
X8Y1678D01*
X2748Y1678D02*
X2755Y1678D01*
X1Y1677D02*
X8Y1677D01*
X2748Y1677D02*
X2755Y1677D01*
X1Y1676D02*
X8Y1676D01*
X2748Y1676D02*
X2755Y1676D01*
X1Y1675D02*
X8Y1675D01*
X2748Y1675D02*
X2755Y1675D01*
X1Y1674D02*
X8Y1674D01*
X2748Y1674D02*
X2755Y1674D01*
X1Y1673D02*
X8Y1673D01*
X2748Y1673D02*
X2755Y1673D01*
X1Y1672D02*
X8Y1672D01*
X2748Y1672D02*
X2755Y1672D01*
X1Y1671D02*
X8Y1671D01*
X2748Y1671D02*
X2755Y1671D01*
X1Y1670D02*
X8Y1670D01*
X2748Y1670D02*
X2755Y1670D01*
X1Y1669D02*
X8Y1669D01*
X2748Y1669D02*
X2755Y1669D01*
X1Y1668D02*
X8Y1668D01*
X2748Y1668D02*
X2755Y1668D01*
X1Y1667D02*
X8Y1667D01*
X2748Y1667D02*
X2755Y1667D01*
X1Y1666D02*
X8Y1666D01*
X2748Y1666D02*
X2755Y1666D01*
X1Y1665D02*
X8Y1665D01*
X2748Y1665D02*
X2755Y1665D01*
X1Y1664D02*
X8Y1664D01*
X2748Y1664D02*
X2755Y1664D01*
X1Y1663D02*
X8Y1663D01*
X2748Y1663D02*
X2755Y1663D01*
X1Y1662D02*
X8Y1662D01*
X2748Y1662D02*
X2755Y1662D01*
X1Y1661D02*
X8Y1661D01*
X2748Y1661D02*
X2755Y1661D01*
X1Y1660D02*
X8Y1660D01*
X2748Y1660D02*
X2755Y1660D01*
X1Y1659D02*
X8Y1659D01*
X2748Y1659D02*
X2755Y1659D01*
X1Y1658D02*
X8Y1658D01*
X2748Y1658D02*
X2755Y1658D01*
X1Y1657D02*
X8Y1657D01*
X2748Y1657D02*
X2755Y1657D01*
X1Y1656D02*
X8Y1656D01*
X2748Y1656D02*
X2755Y1656D01*
X1Y1655D02*
X8Y1655D01*
X2748Y1655D02*
X2755Y1655D01*
X1Y1654D02*
X8Y1654D01*
X2748Y1654D02*
X2755Y1654D01*
X1Y1653D02*
X8Y1653D01*
X2748Y1653D02*
X2755Y1653D01*
X1Y1652D02*
X8Y1652D01*
X2748Y1652D02*
X2755Y1652D01*
X1Y1651D02*
X8Y1651D01*
X2748Y1651D02*
X2755Y1651D01*
X1Y1650D02*
X8Y1650D01*
X2748Y1650D02*
X2755Y1650D01*
X1Y1649D02*
X8Y1649D01*
X2748Y1649D02*
X2755Y1649D01*
X1Y1648D02*
X8Y1648D01*
X2748Y1648D02*
X2755Y1648D01*
X1Y1647D02*
X8Y1647D01*
X2748Y1647D02*
X2755Y1647D01*
X1Y1646D02*
X8Y1646D01*
X2748Y1646D02*
X2755Y1646D01*
X1Y1645D02*
X8Y1645D01*
X2748Y1645D02*
X2755Y1645D01*
X1Y1644D02*
X8Y1644D01*
X2748Y1644D02*
X2755Y1644D01*
X1Y1643D02*
X8Y1643D01*
X2748Y1643D02*
X2755Y1643D01*
X1Y1642D02*
X8Y1642D01*
X2748Y1642D02*
X2755Y1642D01*
X1Y1641D02*
X8Y1641D01*
X2748Y1641D02*
X2755Y1641D01*
X1Y1640D02*
X8Y1640D01*
X2748Y1640D02*
X2755Y1640D01*
X1Y1639D02*
X8Y1639D01*
X2748Y1639D02*
X2755Y1639D01*
X1Y1638D02*
X8Y1638D01*
X2748Y1638D02*
X2755Y1638D01*
X1Y1637D02*
X8Y1637D01*
X2748Y1637D02*
X2755Y1637D01*
X1Y1636D02*
X8Y1636D01*
X2748Y1636D02*
X2755Y1636D01*
X1Y1635D02*
X8Y1635D01*
X2748Y1635D02*
X2755Y1635D01*
X1Y1634D02*
X8Y1634D01*
X2748Y1634D02*
X2755Y1634D01*
X1Y1633D02*
X8Y1633D01*
X2748Y1633D02*
X2755Y1633D01*
X1Y1632D02*
X8Y1632D01*
X2748Y1632D02*
X2755Y1632D01*
X1Y1631D02*
X8Y1631D01*
X2748Y1631D02*
X2755Y1631D01*
X1Y1630D02*
X8Y1630D01*
X2748Y1630D02*
X2755Y1630D01*
X1Y1629D02*
X8Y1629D01*
X2748Y1629D02*
X2755Y1629D01*
X1Y1628D02*
X8Y1628D01*
X2748Y1628D02*
X2755Y1628D01*
X1Y1627D02*
X8Y1627D01*
X2748Y1627D02*
X2755Y1627D01*
X1Y1626D02*
X8Y1626D01*
X2748Y1626D02*
X2755Y1626D01*
X1Y1625D02*
X8Y1625D01*
X2748Y1625D02*
X2755Y1625D01*
X1Y1624D02*
X8Y1624D01*
X2748Y1624D02*
X2755Y1624D01*
X1Y1623D02*
X8Y1623D01*
X2748Y1623D02*
X2755Y1623D01*
X1Y1622D02*
X8Y1622D01*
X2748Y1622D02*
X2755Y1622D01*
X1Y1621D02*
X8Y1621D01*
X2748Y1621D02*
X2755Y1621D01*
X1Y1620D02*
X8Y1620D01*
X2748Y1620D02*
X2755Y1620D01*
X1Y1619D02*
X8Y1619D01*
X2748Y1619D02*
X2755Y1619D01*
X1Y1618D02*
X8Y1618D01*
X2748Y1618D02*
X2755Y1618D01*
X1Y1617D02*
X8Y1617D01*
X2748Y1617D02*
X2755Y1617D01*
X1Y1616D02*
X8Y1616D01*
X2748Y1616D02*
X2755Y1616D01*
X1Y1615D02*
X8Y1615D01*
X2748Y1615D02*
X2755Y1615D01*
X1Y1614D02*
X8Y1614D01*
X2748Y1614D02*
X2755Y1614D01*
X1Y1613D02*
X8Y1613D01*
X2748Y1613D02*
X2755Y1613D01*
X1Y1612D02*
X8Y1612D01*
X2748Y1612D02*
X2755Y1612D01*
X1Y1611D02*
X8Y1611D01*
X2748Y1611D02*
X2755Y1611D01*
X1Y1610D02*
X8Y1610D01*
X2748Y1610D02*
X2755Y1610D01*
X1Y1609D02*
X8Y1609D01*
X2748Y1609D02*
X2755Y1609D01*
X1Y1608D02*
X8Y1608D01*
X2748Y1608D02*
X2755Y1608D01*
X1Y1607D02*
X8Y1607D01*
X2748Y1607D02*
X2755Y1607D01*
X1Y1606D02*
X8Y1606D01*
X2748Y1606D02*
X2755Y1606D01*
X1Y1605D02*
X8Y1605D01*
X2748Y1605D02*
X2755Y1605D01*
X1Y1604D02*
X8Y1604D01*
X2748Y1604D02*
X2755Y1604D01*
X1Y1603D02*
X8Y1603D01*
X2748Y1603D02*
X2755Y1603D01*
X1Y1602D02*
X8Y1602D01*
X2748Y1602D02*
X2755Y1602D01*
X1Y1601D02*
X8Y1601D01*
X2748Y1601D02*
X2755Y1601D01*
X1Y1600D02*
X8Y1600D01*
X2748Y1600D02*
X2755Y1600D01*
X1Y1599D02*
X8Y1599D01*
X2748Y1599D02*
X2755Y1599D01*
X1Y1598D02*
X8Y1598D01*
X2748Y1598D02*
X2755Y1598D01*
X1Y1597D02*
X8Y1597D01*
X2748Y1597D02*
X2755Y1597D01*
X1Y1596D02*
X8Y1596D01*
X2748Y1596D02*
X2755Y1596D01*
X1Y1595D02*
X8Y1595D01*
X2748Y1595D02*
X2755Y1595D01*
X1Y1594D02*
X8Y1594D01*
X2748Y1594D02*
X2755Y1594D01*
X1Y1593D02*
X8Y1593D01*
X2748Y1593D02*
X2755Y1593D01*
X1Y1592D02*
X8Y1592D01*
X2748Y1592D02*
X2755Y1592D01*
X1Y1591D02*
X8Y1591D01*
X2748Y1591D02*
X2755Y1591D01*
X1Y1590D02*
X8Y1590D01*
X2748Y1590D02*
X2755Y1590D01*
X1Y1589D02*
X8Y1589D01*
X2748Y1589D02*
X2755Y1589D01*
X1Y1588D02*
X8Y1588D01*
X2748Y1588D02*
X2755Y1588D01*
X1Y1587D02*
X8Y1587D01*
X2748Y1587D02*
X2755Y1587D01*
X1Y1586D02*
X8Y1586D01*
X2748Y1586D02*
X2755Y1586D01*
X1Y1585D02*
X8Y1585D01*
X2748Y1585D02*
X2755Y1585D01*
X1Y1584D02*
X8Y1584D01*
X2748Y1584D02*
X2755Y1584D01*
X1Y1583D02*
X8Y1583D01*
X2748Y1583D02*
X2755Y1583D01*
X1Y1582D02*
X8Y1582D01*
X2748Y1582D02*
X2755Y1582D01*
X1Y1581D02*
X8Y1581D01*
X2748Y1581D02*
X2755Y1581D01*
X1Y1580D02*
X8Y1580D01*
X2748Y1580D02*
X2755Y1580D01*
X1Y1579D02*
X8Y1579D01*
X2748Y1579D02*
X2755Y1579D01*
X1Y1578D02*
X8Y1578D01*
X2748Y1578D02*
X2755Y1578D01*
X1Y1577D02*
X8Y1577D01*
X2748Y1577D02*
X2755Y1577D01*
X1Y1576D02*
X8Y1576D01*
X2748Y1576D02*
X2755Y1576D01*
X1Y1575D02*
X8Y1575D01*
X2748Y1575D02*
X2755Y1575D01*
X1Y1574D02*
X8Y1574D01*
X2748Y1574D02*
X2755Y1574D01*
X1Y1573D02*
X8Y1573D01*
X2748Y1573D02*
X2755Y1573D01*
X1Y1572D02*
X8Y1572D01*
X2748Y1572D02*
X2755Y1572D01*
X1Y1571D02*
X8Y1571D01*
X2748Y1571D02*
X2755Y1571D01*
X1Y1570D02*
X8Y1570D01*
X2748Y1570D02*
X2755Y1570D01*
X1Y1569D02*
X8Y1569D01*
X2748Y1569D02*
X2755Y1569D01*
X1Y1568D02*
X8Y1568D01*
X2748Y1568D02*
X2755Y1568D01*
X1Y1567D02*
X8Y1567D01*
X2748Y1567D02*
X2755Y1567D01*
X1Y1566D02*
X8Y1566D01*
X2748Y1566D02*
X2755Y1566D01*
X1Y1565D02*
X8Y1565D01*
X2748Y1565D02*
X2755Y1565D01*
X1Y1564D02*
X8Y1564D01*
X2748Y1564D02*
X2755Y1564D01*
X1Y1563D02*
X8Y1563D01*
X2748Y1563D02*
X2755Y1563D01*
X1Y1562D02*
X8Y1562D01*
X2748Y1562D02*
X2755Y1562D01*
X1Y1561D02*
X8Y1561D01*
X2748Y1561D02*
X2755Y1561D01*
X1Y1560D02*
X8Y1560D01*
X2748Y1560D02*
X2755Y1560D01*
X1Y1559D02*
X8Y1559D01*
X2748Y1559D02*
X2755Y1559D01*
X1Y1558D02*
X8Y1558D01*
X2748Y1558D02*
X2755Y1558D01*
X1Y1557D02*
X8Y1557D01*
X2748Y1557D02*
X2755Y1557D01*
X1Y1556D02*
X8Y1556D01*
X2748Y1556D02*
X2755Y1556D01*
X1Y1555D02*
X8Y1555D01*
X2748Y1555D02*
X2755Y1555D01*
X1Y1554D02*
X8Y1554D01*
X2748Y1554D02*
X2755Y1554D01*
X1Y1553D02*
X8Y1553D01*
X2748Y1553D02*
X2755Y1553D01*
X1Y1552D02*
X8Y1552D01*
X2748Y1552D02*
X2755Y1552D01*
X1Y1551D02*
X8Y1551D01*
X2748Y1551D02*
X2755Y1551D01*
X1Y1550D02*
X8Y1550D01*
X2748Y1550D02*
X2755Y1550D01*
X1Y1549D02*
X8Y1549D01*
X2748Y1549D02*
X2755Y1549D01*
X1Y1548D02*
X8Y1548D01*
X2748Y1548D02*
X2755Y1548D01*
X1Y1547D02*
X8Y1547D01*
X2748Y1547D02*
X2755Y1547D01*
X1Y1546D02*
X8Y1546D01*
X2748Y1546D02*
X2755Y1546D01*
X1Y1545D02*
X8Y1545D01*
X2748Y1545D02*
X2755Y1545D01*
X1Y1544D02*
X8Y1544D01*
X2748Y1544D02*
X2755Y1544D01*
X1Y1543D02*
X8Y1543D01*
X2748Y1543D02*
X2755Y1543D01*
X1Y1542D02*
X8Y1542D01*
X2748Y1542D02*
X2755Y1542D01*
X1Y1541D02*
X8Y1541D01*
X2748Y1541D02*
X2755Y1541D01*
X1Y1540D02*
X8Y1540D01*
X2748Y1540D02*
X2755Y1540D01*
X1Y1539D02*
X8Y1539D01*
X2748Y1539D02*
X2755Y1539D01*
X1Y1538D02*
X8Y1538D01*
X2748Y1538D02*
X2755Y1538D01*
X1Y1537D02*
X8Y1537D01*
X2748Y1537D02*
X2755Y1537D01*
X1Y1536D02*
X8Y1536D01*
X2748Y1536D02*
X2755Y1536D01*
X1Y1535D02*
X8Y1535D01*
X2748Y1535D02*
X2755Y1535D01*
X1Y1534D02*
X8Y1534D01*
X2748Y1534D02*
X2755Y1534D01*
X1Y1533D02*
X8Y1533D01*
X2748Y1533D02*
X2755Y1533D01*
X1Y1532D02*
X8Y1532D01*
X2748Y1532D02*
X2755Y1532D01*
X1Y1531D02*
X8Y1531D01*
X2748Y1531D02*
X2755Y1531D01*
X1Y1530D02*
X8Y1530D01*
X2748Y1530D02*
X2755Y1530D01*
X1Y1529D02*
X8Y1529D01*
X2748Y1529D02*
X2755Y1529D01*
X1Y1528D02*
X8Y1528D01*
X2748Y1528D02*
X2755Y1528D01*
X1Y1527D02*
X8Y1527D01*
X2748Y1527D02*
X2755Y1527D01*
X1Y1526D02*
X8Y1526D01*
X2748Y1526D02*
X2755Y1526D01*
X1Y1525D02*
X8Y1525D01*
X2748Y1525D02*
X2755Y1525D01*
X1Y1524D02*
X8Y1524D01*
X2748Y1524D02*
X2755Y1524D01*
X1Y1523D02*
X8Y1523D01*
X2748Y1523D02*
X2755Y1523D01*
X1Y1522D02*
X8Y1522D01*
X2748Y1522D02*
X2755Y1522D01*
X1Y1521D02*
X8Y1521D01*
X2748Y1521D02*
X2755Y1521D01*
X1Y1520D02*
X8Y1520D01*
X2748Y1520D02*
X2755Y1520D01*
X1Y1519D02*
X8Y1519D01*
X2748Y1519D02*
X2755Y1519D01*
X1Y1518D02*
X8Y1518D01*
X2748Y1518D02*
X2755Y1518D01*
X1Y1517D02*
X8Y1517D01*
X2748Y1517D02*
X2755Y1517D01*
X1Y1516D02*
X8Y1516D01*
X2748Y1516D02*
X2755Y1516D01*
X1Y1515D02*
X8Y1515D01*
X2748Y1515D02*
X2755Y1515D01*
X1Y1514D02*
X8Y1514D01*
X2748Y1514D02*
X2755Y1514D01*
X1Y1513D02*
X8Y1513D01*
X2748Y1513D02*
X2755Y1513D01*
X1Y1512D02*
X8Y1512D01*
X2748Y1512D02*
X2755Y1512D01*
X1Y1511D02*
X8Y1511D01*
X2748Y1511D02*
X2755Y1511D01*
X1Y1510D02*
X8Y1510D01*
X2748Y1510D02*
X2755Y1510D01*
X1Y1509D02*
X8Y1509D01*
X2748Y1509D02*
X2755Y1509D01*
X1Y1508D02*
X8Y1508D01*
X2748Y1508D02*
X2755Y1508D01*
X1Y1507D02*
X8Y1507D01*
X2748Y1507D02*
X2755Y1507D01*
X1Y1506D02*
X8Y1506D01*
X2748Y1506D02*
X2755Y1506D01*
X1Y1505D02*
X8Y1505D01*
X2748Y1505D02*
X2755Y1505D01*
X1Y1504D02*
X8Y1504D01*
X2748Y1504D02*
X2755Y1504D01*
X1Y1503D02*
X8Y1503D01*
X2748Y1503D02*
X2755Y1503D01*
X1Y1502D02*
X8Y1502D01*
X2748Y1502D02*
X2755Y1502D01*
X1Y1501D02*
X8Y1501D01*
X2748Y1501D02*
X2755Y1501D01*
X1Y1500D02*
X8Y1500D01*
X2748Y1500D02*
X2755Y1500D01*
X1Y1499D02*
X8Y1499D01*
X2748Y1499D02*
X2755Y1499D01*
X1Y1498D02*
X8Y1498D01*
X2748Y1498D02*
X2755Y1498D01*
X1Y1497D02*
X8Y1497D01*
X2748Y1497D02*
X2755Y1497D01*
X1Y1496D02*
X8Y1496D01*
X2748Y1496D02*
X2755Y1496D01*
X1Y1495D02*
X8Y1495D01*
X2748Y1495D02*
X2755Y1495D01*
X1Y1494D02*
X8Y1494D01*
X2748Y1494D02*
X2755Y1494D01*
X1Y1493D02*
X8Y1493D01*
X2748Y1493D02*
X2755Y1493D01*
X1Y1492D02*
X8Y1492D01*
X2748Y1492D02*
X2755Y1492D01*
X1Y1491D02*
X8Y1491D01*
X2748Y1491D02*
X2755Y1491D01*
X1Y1490D02*
X8Y1490D01*
X2748Y1490D02*
X2755Y1490D01*
X1Y1489D02*
X8Y1489D01*
X2748Y1489D02*
X2755Y1489D01*
X1Y1488D02*
X8Y1488D01*
X2748Y1488D02*
X2755Y1488D01*
X1Y1487D02*
X8Y1487D01*
X2748Y1487D02*
X2755Y1487D01*
X1Y1486D02*
X8Y1486D01*
X2748Y1486D02*
X2755Y1486D01*
X1Y1485D02*
X8Y1485D01*
X2748Y1485D02*
X2755Y1485D01*
X1Y1484D02*
X8Y1484D01*
X2748Y1484D02*
X2755Y1484D01*
X1Y1483D02*
X8Y1483D01*
X2748Y1483D02*
X2755Y1483D01*
X1Y1482D02*
X8Y1482D01*
X2748Y1482D02*
X2755Y1482D01*
X1Y1481D02*
X8Y1481D01*
X2748Y1481D02*
X2755Y1481D01*
X1Y1480D02*
X8Y1480D01*
X2748Y1480D02*
X2755Y1480D01*
X1Y1479D02*
X8Y1479D01*
X2748Y1479D02*
X2755Y1479D01*
X1Y1478D02*
X8Y1478D01*
X2748Y1478D02*
X2755Y1478D01*
X1Y1477D02*
X8Y1477D01*
X2748Y1477D02*
X2755Y1477D01*
X1Y1476D02*
X8Y1476D01*
X2748Y1476D02*
X2755Y1476D01*
X1Y1475D02*
X8Y1475D01*
X2748Y1475D02*
X2755Y1475D01*
X1Y1474D02*
X8Y1474D01*
X2748Y1474D02*
X2755Y1474D01*
X1Y1473D02*
X8Y1473D01*
X2748Y1473D02*
X2755Y1473D01*
X1Y1472D02*
X8Y1472D01*
X2748Y1472D02*
X2755Y1472D01*
X1Y1471D02*
X8Y1471D01*
X2748Y1471D02*
X2755Y1471D01*
X1Y1470D02*
X8Y1470D01*
X2748Y1470D02*
X2755Y1470D01*
X1Y1469D02*
X8Y1469D01*
X2748Y1469D02*
X2755Y1469D01*
X1Y1468D02*
X8Y1468D01*
X2748Y1468D02*
X2755Y1468D01*
X1Y1467D02*
X8Y1467D01*
X2748Y1467D02*
X2755Y1467D01*
X1Y1466D02*
X8Y1466D01*
X2748Y1466D02*
X2755Y1466D01*
X1Y1465D02*
X8Y1465D01*
X2748Y1465D02*
X2755Y1465D01*
X1Y1464D02*
X8Y1464D01*
X2748Y1464D02*
X2755Y1464D01*
X1Y1463D02*
X8Y1463D01*
X2748Y1463D02*
X2755Y1463D01*
X1Y1462D02*
X8Y1462D01*
X2748Y1462D02*
X2755Y1462D01*
X1Y1461D02*
X8Y1461D01*
X2748Y1461D02*
X2755Y1461D01*
X1Y1460D02*
X8Y1460D01*
X2748Y1460D02*
X2755Y1460D01*
X1Y1459D02*
X8Y1459D01*
X2748Y1459D02*
X2755Y1459D01*
X1Y1458D02*
X8Y1458D01*
X2748Y1458D02*
X2755Y1458D01*
X1Y1457D02*
X8Y1457D01*
X2748Y1457D02*
X2755Y1457D01*
X1Y1456D02*
X8Y1456D01*
X2748Y1456D02*
X2755Y1456D01*
X1Y1455D02*
X8Y1455D01*
X2748Y1455D02*
X2755Y1455D01*
X1Y1454D02*
X8Y1454D01*
X2748Y1454D02*
X2755Y1454D01*
X1Y1453D02*
X8Y1453D01*
X2748Y1453D02*
X2755Y1453D01*
X1Y1452D02*
X8Y1452D01*
X2748Y1452D02*
X2755Y1452D01*
X1Y1451D02*
X8Y1451D01*
X2748Y1451D02*
X2755Y1451D01*
X1Y1450D02*
X8Y1450D01*
X2748Y1450D02*
X2755Y1450D01*
X1Y1449D02*
X8Y1449D01*
X2748Y1449D02*
X2755Y1449D01*
X1Y1448D02*
X8Y1448D01*
X2748Y1448D02*
X2755Y1448D01*
X1Y1447D02*
X8Y1447D01*
X2748Y1447D02*
X2755Y1447D01*
X1Y1446D02*
X8Y1446D01*
X2748Y1446D02*
X2755Y1446D01*
X1Y1445D02*
X8Y1445D01*
X2748Y1445D02*
X2755Y1445D01*
X1Y1444D02*
X8Y1444D01*
X2748Y1444D02*
X2755Y1444D01*
X1Y1443D02*
X8Y1443D01*
X2748Y1443D02*
X2755Y1443D01*
X1Y1442D02*
X8Y1442D01*
X2748Y1442D02*
X2755Y1442D01*
X1Y1441D02*
X8Y1441D01*
X2748Y1441D02*
X2755Y1441D01*
X1Y1440D02*
X8Y1440D01*
X2748Y1440D02*
X2755Y1440D01*
X1Y1439D02*
X8Y1439D01*
X2748Y1439D02*
X2755Y1439D01*
X1Y1438D02*
X8Y1438D01*
X2748Y1438D02*
X2755Y1438D01*
X1Y1437D02*
X8Y1437D01*
X2748Y1437D02*
X2755Y1437D01*
X1Y1436D02*
X8Y1436D01*
X2748Y1436D02*
X2755Y1436D01*
X1Y1435D02*
X8Y1435D01*
X2748Y1435D02*
X2755Y1435D01*
X1Y1434D02*
X8Y1434D01*
X2748Y1434D02*
X2755Y1434D01*
X1Y1433D02*
X8Y1433D01*
X2748Y1433D02*
X2755Y1433D01*
X1Y1432D02*
X8Y1432D01*
X2748Y1432D02*
X2755Y1432D01*
X1Y1431D02*
X8Y1431D01*
X2748Y1431D02*
X2755Y1431D01*
X1Y1430D02*
X8Y1430D01*
X2748Y1430D02*
X2755Y1430D01*
X1Y1429D02*
X8Y1429D01*
X2748Y1429D02*
X2755Y1429D01*
X1Y1428D02*
X8Y1428D01*
X2748Y1428D02*
X2755Y1428D01*
X1Y1427D02*
X8Y1427D01*
X2748Y1427D02*
X2755Y1427D01*
X1Y1426D02*
X8Y1426D01*
X2748Y1426D02*
X2755Y1426D01*
X1Y1425D02*
X8Y1425D01*
X2748Y1425D02*
X2755Y1425D01*
X1Y1424D02*
X8Y1424D01*
X2748Y1424D02*
X2755Y1424D01*
X1Y1423D02*
X8Y1423D01*
X2748Y1423D02*
X2755Y1423D01*
X1Y1422D02*
X8Y1422D01*
X2748Y1422D02*
X2755Y1422D01*
X1Y1421D02*
X8Y1421D01*
X2748Y1421D02*
X2755Y1421D01*
X1Y1420D02*
X8Y1420D01*
X2748Y1420D02*
X2755Y1420D01*
X1Y1419D02*
X8Y1419D01*
X2748Y1419D02*
X2755Y1419D01*
X1Y1418D02*
X8Y1418D01*
X2748Y1418D02*
X2755Y1418D01*
X1Y1417D02*
X8Y1417D01*
X2748Y1417D02*
X2755Y1417D01*
X1Y1416D02*
X8Y1416D01*
X2748Y1416D02*
X2755Y1416D01*
X1Y1415D02*
X8Y1415D01*
X2748Y1415D02*
X2755Y1415D01*
X1Y1414D02*
X8Y1414D01*
X2748Y1414D02*
X2755Y1414D01*
X1Y1413D02*
X8Y1413D01*
X2748Y1413D02*
X2755Y1413D01*
X1Y1412D02*
X8Y1412D01*
X2748Y1412D02*
X2755Y1412D01*
X1Y1411D02*
X8Y1411D01*
X2748Y1411D02*
X2755Y1411D01*
X1Y1410D02*
X8Y1410D01*
X2748Y1410D02*
X2755Y1410D01*
X1Y1409D02*
X8Y1409D01*
X2748Y1409D02*
X2755Y1409D01*
X1Y1408D02*
X8Y1408D01*
X2748Y1408D02*
X2755Y1408D01*
X1Y1407D02*
X8Y1407D01*
X2748Y1407D02*
X2755Y1407D01*
X1Y1406D02*
X8Y1406D01*
X2748Y1406D02*
X2755Y1406D01*
X1Y1405D02*
X8Y1405D01*
X2748Y1405D02*
X2755Y1405D01*
X1Y1404D02*
X8Y1404D01*
X2748Y1404D02*
X2755Y1404D01*
X1Y1403D02*
X8Y1403D01*
X2748Y1403D02*
X2755Y1403D01*
X1Y1402D02*
X8Y1402D01*
X2748Y1402D02*
X2755Y1402D01*
X1Y1401D02*
X8Y1401D01*
X2748Y1401D02*
X2755Y1401D01*
X1Y1400D02*
X8Y1400D01*
X2748Y1400D02*
X2755Y1400D01*
X1Y1399D02*
X8Y1399D01*
X2748Y1399D02*
X2755Y1399D01*
X1Y1398D02*
X8Y1398D01*
X2748Y1398D02*
X2755Y1398D01*
X1Y1397D02*
X8Y1397D01*
X2748Y1397D02*
X2755Y1397D01*
X1Y1396D02*
X8Y1396D01*
X2748Y1396D02*
X2755Y1396D01*
X1Y1395D02*
X8Y1395D01*
X2748Y1395D02*
X2755Y1395D01*
X1Y1394D02*
X8Y1394D01*
X2748Y1394D02*
X2755Y1394D01*
X1Y1393D02*
X8Y1393D01*
X2748Y1393D02*
X2755Y1393D01*
X1Y1392D02*
X8Y1392D01*
X2748Y1392D02*
X2755Y1392D01*
X1Y1391D02*
X8Y1391D01*
X2748Y1391D02*
X2755Y1391D01*
X1Y1390D02*
X8Y1390D01*
X2748Y1390D02*
X2755Y1390D01*
X1Y1389D02*
X8Y1389D01*
X2748Y1389D02*
X2755Y1389D01*
X1Y1388D02*
X8Y1388D01*
X2748Y1388D02*
X2755Y1388D01*
X1Y1387D02*
X8Y1387D01*
X2748Y1387D02*
X2755Y1387D01*
X1Y1386D02*
X8Y1386D01*
X2748Y1386D02*
X2755Y1386D01*
X1Y1385D02*
X8Y1385D01*
X2748Y1385D02*
X2755Y1385D01*
X1Y1384D02*
X8Y1384D01*
X2748Y1384D02*
X2755Y1384D01*
X1Y1383D02*
X8Y1383D01*
X2748Y1383D02*
X2755Y1383D01*
X1Y1382D02*
X8Y1382D01*
X2748Y1382D02*
X2755Y1382D01*
X1Y1381D02*
X8Y1381D01*
X2748Y1381D02*
X2755Y1381D01*
X1Y1380D02*
X8Y1380D01*
X2748Y1380D02*
X2755Y1380D01*
X1Y1379D02*
X8Y1379D01*
X2748Y1379D02*
X2755Y1379D01*
X1Y1378D02*
X8Y1378D01*
X2748Y1378D02*
X2755Y1378D01*
X1Y1377D02*
X8Y1377D01*
X2748Y1377D02*
X2755Y1377D01*
X1Y1376D02*
X8Y1376D01*
X2748Y1376D02*
X2755Y1376D01*
X1Y1375D02*
X8Y1375D01*
X2748Y1375D02*
X2755Y1375D01*
X1Y1374D02*
X8Y1374D01*
X2748Y1374D02*
X2755Y1374D01*
X1Y1373D02*
X8Y1373D01*
X2748Y1373D02*
X2755Y1373D01*
X1Y1372D02*
X8Y1372D01*
X2748Y1372D02*
X2755Y1372D01*
X1Y1371D02*
X8Y1371D01*
X2748Y1371D02*
X2755Y1371D01*
X1Y1370D02*
X8Y1370D01*
X2748Y1370D02*
X2755Y1370D01*
X1Y1369D02*
X8Y1369D01*
X2748Y1369D02*
X2755Y1369D01*
X1Y1368D02*
X8Y1368D01*
X2748Y1368D02*
X2755Y1368D01*
X1Y1367D02*
X8Y1367D01*
X2748Y1367D02*
X2755Y1367D01*
X1Y1366D02*
X8Y1366D01*
X2748Y1366D02*
X2755Y1366D01*
X1Y1365D02*
X8Y1365D01*
X2748Y1365D02*
X2755Y1365D01*
X1Y1364D02*
X8Y1364D01*
X2748Y1364D02*
X2755Y1364D01*
X1Y1363D02*
X8Y1363D01*
X2748Y1363D02*
X2755Y1363D01*
X1Y1362D02*
X8Y1362D01*
X2748Y1362D02*
X2755Y1362D01*
X1Y1361D02*
X8Y1361D01*
X2748Y1361D02*
X2755Y1361D01*
X1Y1360D02*
X8Y1360D01*
X2748Y1360D02*
X2755Y1360D01*
X1Y1359D02*
X8Y1359D01*
X2748Y1359D02*
X2755Y1359D01*
X1Y1358D02*
X8Y1358D01*
X2748Y1358D02*
X2755Y1358D01*
X1Y1357D02*
X8Y1357D01*
X2748Y1357D02*
X2755Y1357D01*
X1Y1356D02*
X8Y1356D01*
X2748Y1356D02*
X2755Y1356D01*
X1Y1355D02*
X8Y1355D01*
X2748Y1355D02*
X2755Y1355D01*
X1Y1354D02*
X8Y1354D01*
X2748Y1354D02*
X2755Y1354D01*
X1Y1353D02*
X8Y1353D01*
X2748Y1353D02*
X2755Y1353D01*
X1Y1352D02*
X8Y1352D01*
X2748Y1352D02*
X2755Y1352D01*
X1Y1351D02*
X8Y1351D01*
X2748Y1351D02*
X2755Y1351D01*
X1Y1350D02*
X8Y1350D01*
X2748Y1350D02*
X2755Y1350D01*
X1Y1349D02*
X8Y1349D01*
X2748Y1349D02*
X2755Y1349D01*
X1Y1348D02*
X8Y1348D01*
X2748Y1348D02*
X2755Y1348D01*
X1Y1347D02*
X8Y1347D01*
X2748Y1347D02*
X2755Y1347D01*
X1Y1346D02*
X8Y1346D01*
X2748Y1346D02*
X2755Y1346D01*
X1Y1345D02*
X8Y1345D01*
X2748Y1345D02*
X2755Y1345D01*
X1Y1344D02*
X8Y1344D01*
X2748Y1344D02*
X2755Y1344D01*
X1Y1343D02*
X8Y1343D01*
X2748Y1343D02*
X2755Y1343D01*
X1Y1342D02*
X8Y1342D01*
X2748Y1342D02*
X2755Y1342D01*
X1Y1341D02*
X8Y1341D01*
X2748Y1341D02*
X2755Y1341D01*
X1Y1340D02*
X8Y1340D01*
X2748Y1340D02*
X2755Y1340D01*
X1Y1339D02*
X8Y1339D01*
X2748Y1339D02*
X2755Y1339D01*
X1Y1338D02*
X8Y1338D01*
X2748Y1338D02*
X2755Y1338D01*
X1Y1337D02*
X8Y1337D01*
X2748Y1337D02*
X2755Y1337D01*
X1Y1336D02*
X8Y1336D01*
X2748Y1336D02*
X2755Y1336D01*
X1Y1335D02*
X8Y1335D01*
X2748Y1335D02*
X2755Y1335D01*
X1Y1334D02*
X8Y1334D01*
X2748Y1334D02*
X2755Y1334D01*
X1Y1333D02*
X8Y1333D01*
X2748Y1333D02*
X2755Y1333D01*
X1Y1332D02*
X8Y1332D01*
X2748Y1332D02*
X2755Y1332D01*
X1Y1331D02*
X8Y1331D01*
X2748Y1331D02*
X2755Y1331D01*
X1Y1330D02*
X8Y1330D01*
X2748Y1330D02*
X2755Y1330D01*
X1Y1329D02*
X8Y1329D01*
X2748Y1329D02*
X2755Y1329D01*
X1Y1328D02*
X8Y1328D01*
X2748Y1328D02*
X2755Y1328D01*
X1Y1327D02*
X8Y1327D01*
X2748Y1327D02*
X2755Y1327D01*
X1Y1326D02*
X8Y1326D01*
X2748Y1326D02*
X2755Y1326D01*
X1Y1325D02*
X8Y1325D01*
X2748Y1325D02*
X2755Y1325D01*
X1Y1324D02*
X8Y1324D01*
X2748Y1324D02*
X2755Y1324D01*
X1Y1323D02*
X8Y1323D01*
X2748Y1323D02*
X2755Y1323D01*
X1Y1322D02*
X8Y1322D01*
X2748Y1322D02*
X2755Y1322D01*
X1Y1321D02*
X8Y1321D01*
X2748Y1321D02*
X2755Y1321D01*
X1Y1320D02*
X8Y1320D01*
X2748Y1320D02*
X2755Y1320D01*
X1Y1319D02*
X8Y1319D01*
X2748Y1319D02*
X2755Y1319D01*
X1Y1318D02*
X8Y1318D01*
X2748Y1318D02*
X2755Y1318D01*
X1Y1317D02*
X8Y1317D01*
X2748Y1317D02*
X2755Y1317D01*
X1Y1316D02*
X8Y1316D01*
X2748Y1316D02*
X2755Y1316D01*
X1Y1315D02*
X8Y1315D01*
X2748Y1315D02*
X2755Y1315D01*
X1Y1314D02*
X8Y1314D01*
X2748Y1314D02*
X2755Y1314D01*
X1Y1313D02*
X8Y1313D01*
X2748Y1313D02*
X2755Y1313D01*
X1Y1312D02*
X8Y1312D01*
X2748Y1312D02*
X2755Y1312D01*
X1Y1311D02*
X8Y1311D01*
X2748Y1311D02*
X2755Y1311D01*
X1Y1310D02*
X8Y1310D01*
X2748Y1310D02*
X2755Y1310D01*
X1Y1309D02*
X8Y1309D01*
X2748Y1309D02*
X2755Y1309D01*
X1Y1308D02*
X8Y1308D01*
X2748Y1308D02*
X2755Y1308D01*
X1Y1307D02*
X8Y1307D01*
X2748Y1307D02*
X2755Y1307D01*
X1Y1306D02*
X8Y1306D01*
X2748Y1306D02*
X2755Y1306D01*
X1Y1305D02*
X8Y1305D01*
X2748Y1305D02*
X2755Y1305D01*
X1Y1304D02*
X8Y1304D01*
X2748Y1304D02*
X2755Y1304D01*
X1Y1303D02*
X8Y1303D01*
X2748Y1303D02*
X2755Y1303D01*
X1Y1302D02*
X8Y1302D01*
X2748Y1302D02*
X2755Y1302D01*
X1Y1301D02*
X8Y1301D01*
X2748Y1301D02*
X2755Y1301D01*
X1Y1300D02*
X8Y1300D01*
X2748Y1300D02*
X2755Y1300D01*
X1Y1299D02*
X8Y1299D01*
X2748Y1299D02*
X2755Y1299D01*
X1Y1298D02*
X8Y1298D01*
X2748Y1298D02*
X2755Y1298D01*
X1Y1297D02*
X8Y1297D01*
X2748Y1297D02*
X2755Y1297D01*
X1Y1296D02*
X8Y1296D01*
X2748Y1296D02*
X2755Y1296D01*
X1Y1295D02*
X8Y1295D01*
X2748Y1295D02*
X2755Y1295D01*
X1Y1294D02*
X8Y1294D01*
X2748Y1294D02*
X2755Y1294D01*
X1Y1293D02*
X8Y1293D01*
X2748Y1293D02*
X2755Y1293D01*
X1Y1292D02*
X8Y1292D01*
X2748Y1292D02*
X2755Y1292D01*
X1Y1291D02*
X8Y1291D01*
X2748Y1291D02*
X2755Y1291D01*
X1Y1290D02*
X8Y1290D01*
X2748Y1290D02*
X2755Y1290D01*
X1Y1289D02*
X8Y1289D01*
X2748Y1289D02*
X2755Y1289D01*
X1Y1288D02*
X8Y1288D01*
X2748Y1288D02*
X2755Y1288D01*
X1Y1287D02*
X8Y1287D01*
X2748Y1287D02*
X2755Y1287D01*
X1Y1286D02*
X8Y1286D01*
X2748Y1286D02*
X2755Y1286D01*
X1Y1285D02*
X8Y1285D01*
X2748Y1285D02*
X2755Y1285D01*
X1Y1284D02*
X8Y1284D01*
X2748Y1284D02*
X2755Y1284D01*
X1Y1283D02*
X8Y1283D01*
X2748Y1283D02*
X2755Y1283D01*
X1Y1282D02*
X8Y1282D01*
X2748Y1282D02*
X2755Y1282D01*
X1Y1281D02*
X8Y1281D01*
X2748Y1281D02*
X2755Y1281D01*
X1Y1280D02*
X8Y1280D01*
X2748Y1280D02*
X2755Y1280D01*
X1Y1279D02*
X8Y1279D01*
X2748Y1279D02*
X2755Y1279D01*
X1Y1278D02*
X8Y1278D01*
X2748Y1278D02*
X2755Y1278D01*
X1Y1277D02*
X8Y1277D01*
X2748Y1277D02*
X2755Y1277D01*
X1Y1276D02*
X8Y1276D01*
X2748Y1276D02*
X2755Y1276D01*
X1Y1275D02*
X8Y1275D01*
X2748Y1275D02*
X2755Y1275D01*
X1Y1274D02*
X8Y1274D01*
X2748Y1274D02*
X2755Y1274D01*
X1Y1273D02*
X8Y1273D01*
X2748Y1273D02*
X2755Y1273D01*
X1Y1272D02*
X8Y1272D01*
X2748Y1272D02*
X2755Y1272D01*
X1Y1271D02*
X8Y1271D01*
X2748Y1271D02*
X2755Y1271D01*
X1Y1270D02*
X8Y1270D01*
X2748Y1270D02*
X2755Y1270D01*
X1Y1269D02*
X8Y1269D01*
X2748Y1269D02*
X2755Y1269D01*
X1Y1268D02*
X8Y1268D01*
X2748Y1268D02*
X2755Y1268D01*
X1Y1267D02*
X8Y1267D01*
X2748Y1267D02*
X2755Y1267D01*
X1Y1266D02*
X8Y1266D01*
X2748Y1266D02*
X2755Y1266D01*
X1Y1265D02*
X8Y1265D01*
X2748Y1265D02*
X2755Y1265D01*
X1Y1264D02*
X8Y1264D01*
X2748Y1264D02*
X2755Y1264D01*
X1Y1263D02*
X8Y1263D01*
X2748Y1263D02*
X2755Y1263D01*
X1Y1262D02*
X8Y1262D01*
X2748Y1262D02*
X2755Y1262D01*
X1Y1261D02*
X8Y1261D01*
X2748Y1261D02*
X2755Y1261D01*
X1Y1260D02*
X8Y1260D01*
X2748Y1260D02*
X2755Y1260D01*
X1Y1259D02*
X8Y1259D01*
X2748Y1259D02*
X2755Y1259D01*
X1Y1258D02*
X8Y1258D01*
X2748Y1258D02*
X2755Y1258D01*
X1Y1257D02*
X8Y1257D01*
X2748Y1257D02*
X2755Y1257D01*
X1Y1256D02*
X8Y1256D01*
X2748Y1256D02*
X2755Y1256D01*
X1Y1255D02*
X8Y1255D01*
X2748Y1255D02*
X2755Y1255D01*
X1Y1254D02*
X8Y1254D01*
X2748Y1254D02*
X2755Y1254D01*
X1Y1253D02*
X8Y1253D01*
X2748Y1253D02*
X2755Y1253D01*
X1Y1252D02*
X8Y1252D01*
X2748Y1252D02*
X2755Y1252D01*
X1Y1251D02*
X8Y1251D01*
X2748Y1251D02*
X2755Y1251D01*
X1Y1250D02*
X8Y1250D01*
X2748Y1250D02*
X2755Y1250D01*
X1Y1249D02*
X8Y1249D01*
X2748Y1249D02*
X2755Y1249D01*
X1Y1248D02*
X8Y1248D01*
X2748Y1248D02*
X2755Y1248D01*
X1Y1247D02*
X8Y1247D01*
X2748Y1247D02*
X2755Y1247D01*
X1Y1246D02*
X8Y1246D01*
X2748Y1246D02*
X2755Y1246D01*
X1Y1245D02*
X8Y1245D01*
X2748Y1245D02*
X2755Y1245D01*
X1Y1244D02*
X8Y1244D01*
X2748Y1244D02*
X2755Y1244D01*
X1Y1243D02*
X8Y1243D01*
X2748Y1243D02*
X2755Y1243D01*
X1Y1242D02*
X8Y1242D01*
X2748Y1242D02*
X2755Y1242D01*
X1Y1241D02*
X8Y1241D01*
X2748Y1241D02*
X2755Y1241D01*
X1Y1240D02*
X8Y1240D01*
X2748Y1240D02*
X2755Y1240D01*
X1Y1239D02*
X8Y1239D01*
X2748Y1239D02*
X2755Y1239D01*
X1Y1238D02*
X8Y1238D01*
X2748Y1238D02*
X2755Y1238D01*
X1Y1237D02*
X8Y1237D01*
X2748Y1237D02*
X2755Y1237D01*
X1Y1236D02*
X8Y1236D01*
X2748Y1236D02*
X2755Y1236D01*
X1Y1235D02*
X8Y1235D01*
X2748Y1235D02*
X2755Y1235D01*
X1Y1234D02*
X8Y1234D01*
X2748Y1234D02*
X2755Y1234D01*
X1Y1233D02*
X8Y1233D01*
X2748Y1233D02*
X2755Y1233D01*
X1Y1232D02*
X8Y1232D01*
X2748Y1232D02*
X2755Y1232D01*
X1Y1231D02*
X8Y1231D01*
X2748Y1231D02*
X2755Y1231D01*
X1Y1230D02*
X8Y1230D01*
X2748Y1230D02*
X2755Y1230D01*
X1Y1229D02*
X8Y1229D01*
X2748Y1229D02*
X2755Y1229D01*
X1Y1228D02*
X8Y1228D01*
X2748Y1228D02*
X2755Y1228D01*
X1Y1227D02*
X8Y1227D01*
X2748Y1227D02*
X2755Y1227D01*
X1Y1226D02*
X8Y1226D01*
X2748Y1226D02*
X2755Y1226D01*
X1Y1225D02*
X8Y1225D01*
X2748Y1225D02*
X2755Y1225D01*
X1Y1224D02*
X8Y1224D01*
X2748Y1224D02*
X2755Y1224D01*
X1Y1223D02*
X8Y1223D01*
X2748Y1223D02*
X2755Y1223D01*
X1Y1222D02*
X8Y1222D01*
X2748Y1222D02*
X2755Y1222D01*
X1Y1221D02*
X8Y1221D01*
X2748Y1221D02*
X2755Y1221D01*
X1Y1220D02*
X8Y1220D01*
X2748Y1220D02*
X2755Y1220D01*
X1Y1219D02*
X8Y1219D01*
X2748Y1219D02*
X2755Y1219D01*
X1Y1218D02*
X8Y1218D01*
X2748Y1218D02*
X2755Y1218D01*
X1Y1217D02*
X8Y1217D01*
X2748Y1217D02*
X2755Y1217D01*
X1Y1216D02*
X8Y1216D01*
X2748Y1216D02*
X2755Y1216D01*
X1Y1215D02*
X8Y1215D01*
X2748Y1215D02*
X2755Y1215D01*
X1Y1214D02*
X8Y1214D01*
X2748Y1214D02*
X2755Y1214D01*
X1Y1213D02*
X8Y1213D01*
X2748Y1213D02*
X2755Y1213D01*
X1Y1212D02*
X8Y1212D01*
X2748Y1212D02*
X2755Y1212D01*
X1Y1211D02*
X8Y1211D01*
X2748Y1211D02*
X2755Y1211D01*
X1Y1210D02*
X8Y1210D01*
X2748Y1210D02*
X2755Y1210D01*
X1Y1209D02*
X8Y1209D01*
X2748Y1209D02*
X2755Y1209D01*
X1Y1208D02*
X8Y1208D01*
X2748Y1208D02*
X2755Y1208D01*
X1Y1207D02*
X8Y1207D01*
X2748Y1207D02*
X2755Y1207D01*
X1Y1206D02*
X8Y1206D01*
X2748Y1206D02*
X2755Y1206D01*
X1Y1205D02*
X8Y1205D01*
X2748Y1205D02*
X2755Y1205D01*
X1Y1204D02*
X8Y1204D01*
X2748Y1204D02*
X2755Y1204D01*
X1Y1203D02*
X8Y1203D01*
X2748Y1203D02*
X2755Y1203D01*
X1Y1202D02*
X8Y1202D01*
X2748Y1202D02*
X2755Y1202D01*
X1Y1201D02*
X8Y1201D01*
X2748Y1201D02*
X2755Y1201D01*
X1Y1200D02*
X8Y1200D01*
X2748Y1200D02*
X2755Y1200D01*
X1Y1199D02*
X8Y1199D01*
X2748Y1199D02*
X2755Y1199D01*
X1Y1198D02*
X8Y1198D01*
X2748Y1198D02*
X2755Y1198D01*
X1Y1197D02*
X8Y1197D01*
X2748Y1197D02*
X2755Y1197D01*
X1Y1196D02*
X8Y1196D01*
X2748Y1196D02*
X2755Y1196D01*
X1Y1195D02*
X8Y1195D01*
X2748Y1195D02*
X2755Y1195D01*
X1Y1194D02*
X8Y1194D01*
X2748Y1194D02*
X2755Y1194D01*
X1Y1193D02*
X8Y1193D01*
X2748Y1193D02*
X2755Y1193D01*
X1Y1192D02*
X8Y1192D01*
X2748Y1192D02*
X2755Y1192D01*
X1Y1191D02*
X8Y1191D01*
X2748Y1191D02*
X2755Y1191D01*
X1Y1190D02*
X8Y1190D01*
X2748Y1190D02*
X2755Y1190D01*
X1Y1189D02*
X8Y1189D01*
X2748Y1189D02*
X2755Y1189D01*
X1Y1188D02*
X8Y1188D01*
X2748Y1188D02*
X2755Y1188D01*
X1Y1187D02*
X8Y1187D01*
X2748Y1187D02*
X2755Y1187D01*
X1Y1186D02*
X8Y1186D01*
X2748Y1186D02*
X2755Y1186D01*
X1Y1185D02*
X8Y1185D01*
X2748Y1185D02*
X2755Y1185D01*
X1Y1184D02*
X8Y1184D01*
X2748Y1184D02*
X2755Y1184D01*
X1Y1183D02*
X8Y1183D01*
X2748Y1183D02*
X2755Y1183D01*
X1Y1182D02*
X8Y1182D01*
X2748Y1182D02*
X2755Y1182D01*
X1Y1181D02*
X8Y1181D01*
X2748Y1181D02*
X2755Y1181D01*
X1Y1180D02*
X8Y1180D01*
X2748Y1180D02*
X2755Y1180D01*
X1Y1179D02*
X8Y1179D01*
X2748Y1179D02*
X2755Y1179D01*
X1Y1178D02*
X8Y1178D01*
X2748Y1178D02*
X2755Y1178D01*
X1Y1177D02*
X8Y1177D01*
X2748Y1177D02*
X2755Y1177D01*
X1Y1176D02*
X8Y1176D01*
X2748Y1176D02*
X2755Y1176D01*
X1Y1175D02*
X8Y1175D01*
X2748Y1175D02*
X2755Y1175D01*
X1Y1174D02*
X8Y1174D01*
X2748Y1174D02*
X2755Y1174D01*
X1Y1173D02*
X8Y1173D01*
X2748Y1173D02*
X2755Y1173D01*
X1Y1172D02*
X8Y1172D01*
X2748Y1172D02*
X2755Y1172D01*
X1Y1171D02*
X8Y1171D01*
X2748Y1171D02*
X2755Y1171D01*
X1Y1170D02*
X8Y1170D01*
X2748Y1170D02*
X2755Y1170D01*
X1Y1169D02*
X8Y1169D01*
X2748Y1169D02*
X2755Y1169D01*
X1Y1168D02*
X8Y1168D01*
X2748Y1168D02*
X2755Y1168D01*
X1Y1167D02*
X8Y1167D01*
X2748Y1167D02*
X2755Y1167D01*
X1Y1166D02*
X8Y1166D01*
X2748Y1166D02*
X2755Y1166D01*
X1Y1165D02*
X8Y1165D01*
X2748Y1165D02*
X2755Y1165D01*
X1Y1164D02*
X8Y1164D01*
X2748Y1164D02*
X2755Y1164D01*
X1Y1163D02*
X8Y1163D01*
X2748Y1163D02*
X2755Y1163D01*
X1Y1162D02*
X8Y1162D01*
X2748Y1162D02*
X2755Y1162D01*
X1Y1161D02*
X8Y1161D01*
X2748Y1161D02*
X2755Y1161D01*
X1Y1160D02*
X8Y1160D01*
X2748Y1160D02*
X2755Y1160D01*
X1Y1159D02*
X8Y1159D01*
X2748Y1159D02*
X2755Y1159D01*
X1Y1158D02*
X8Y1158D01*
X2748Y1158D02*
X2755Y1158D01*
X1Y1157D02*
X8Y1157D01*
X2748Y1157D02*
X2755Y1157D01*
X1Y1156D02*
X8Y1156D01*
X2748Y1156D02*
X2755Y1156D01*
X1Y1155D02*
X8Y1155D01*
X2748Y1155D02*
X2755Y1155D01*
X1Y1154D02*
X8Y1154D01*
X2748Y1154D02*
X2755Y1154D01*
X1Y1153D02*
X8Y1153D01*
X2748Y1153D02*
X2755Y1153D01*
X1Y1152D02*
X8Y1152D01*
X2748Y1152D02*
X2755Y1152D01*
X1Y1151D02*
X8Y1151D01*
X2748Y1151D02*
X2755Y1151D01*
X1Y1150D02*
X8Y1150D01*
X2748Y1150D02*
X2755Y1150D01*
X1Y1149D02*
X8Y1149D01*
X2748Y1149D02*
X2755Y1149D01*
X1Y1148D02*
X8Y1148D01*
X2748Y1148D02*
X2755Y1148D01*
X1Y1147D02*
X8Y1147D01*
X2748Y1147D02*
X2755Y1147D01*
X1Y1146D02*
X8Y1146D01*
X2748Y1146D02*
X2755Y1146D01*
X1Y1145D02*
X8Y1145D01*
X2748Y1145D02*
X2755Y1145D01*
X1Y1144D02*
X8Y1144D01*
X2748Y1144D02*
X2755Y1144D01*
X1Y1143D02*
X8Y1143D01*
X2748Y1143D02*
X2755Y1143D01*
X1Y1142D02*
X8Y1142D01*
X2748Y1142D02*
X2755Y1142D01*
X1Y1141D02*
X8Y1141D01*
X2748Y1141D02*
X2755Y1141D01*
X1Y1140D02*
X8Y1140D01*
X2748Y1140D02*
X2755Y1140D01*
X1Y1139D02*
X8Y1139D01*
X2748Y1139D02*
X2755Y1139D01*
X1Y1138D02*
X8Y1138D01*
X2748Y1138D02*
X2755Y1138D01*
X1Y1137D02*
X8Y1137D01*
X2748Y1137D02*
X2755Y1137D01*
X1Y1136D02*
X8Y1136D01*
X2748Y1136D02*
X2755Y1136D01*
X1Y1135D02*
X8Y1135D01*
X2748Y1135D02*
X2755Y1135D01*
X1Y1134D02*
X8Y1134D01*
X2748Y1134D02*
X2755Y1134D01*
X1Y1133D02*
X8Y1133D01*
X2748Y1133D02*
X2755Y1133D01*
X1Y1132D02*
X8Y1132D01*
X2748Y1132D02*
X2755Y1132D01*
X1Y1131D02*
X8Y1131D01*
X2748Y1131D02*
X2755Y1131D01*
X1Y1130D02*
X8Y1130D01*
X2748Y1130D02*
X2755Y1130D01*
X1Y1129D02*
X8Y1129D01*
X2748Y1129D02*
X2755Y1129D01*
X1Y1128D02*
X8Y1128D01*
X2748Y1128D02*
X2755Y1128D01*
X1Y1127D02*
X8Y1127D01*
X2748Y1127D02*
X2755Y1127D01*
X1Y1126D02*
X8Y1126D01*
X2748Y1126D02*
X2755Y1126D01*
X1Y1125D02*
X8Y1125D01*
X2748Y1125D02*
X2755Y1125D01*
X1Y1124D02*
X8Y1124D01*
X2748Y1124D02*
X2755Y1124D01*
X1Y1123D02*
X8Y1123D01*
X2748Y1123D02*
X2755Y1123D01*
X1Y1122D02*
X8Y1122D01*
X2748Y1122D02*
X2755Y1122D01*
X1Y1121D02*
X8Y1121D01*
X2748Y1121D02*
X2755Y1121D01*
X1Y1120D02*
X8Y1120D01*
X2748Y1120D02*
X2755Y1120D01*
X1Y1119D02*
X8Y1119D01*
X2748Y1119D02*
X2755Y1119D01*
X1Y1118D02*
X8Y1118D01*
X2748Y1118D02*
X2755Y1118D01*
X1Y1117D02*
X8Y1117D01*
X2748Y1117D02*
X2755Y1117D01*
X1Y1116D02*
X8Y1116D01*
X2748Y1116D02*
X2755Y1116D01*
X1Y1115D02*
X8Y1115D01*
X2748Y1115D02*
X2755Y1115D01*
X1Y1114D02*
X8Y1114D01*
X2748Y1114D02*
X2755Y1114D01*
X1Y1113D02*
X8Y1113D01*
X2748Y1113D02*
X2755Y1113D01*
X1Y1112D02*
X8Y1112D01*
X2748Y1112D02*
X2755Y1112D01*
X1Y1111D02*
X8Y1111D01*
X2748Y1111D02*
X2755Y1111D01*
X1Y1110D02*
X8Y1110D01*
X2748Y1110D02*
X2755Y1110D01*
X1Y1109D02*
X8Y1109D01*
X2748Y1109D02*
X2755Y1109D01*
X1Y1108D02*
X8Y1108D01*
X2748Y1108D02*
X2755Y1108D01*
X1Y1107D02*
X8Y1107D01*
X2748Y1107D02*
X2755Y1107D01*
X1Y1106D02*
X8Y1106D01*
X2748Y1106D02*
X2755Y1106D01*
X1Y1105D02*
X8Y1105D01*
X2748Y1105D02*
X2755Y1105D01*
X1Y1104D02*
X8Y1104D01*
X2748Y1104D02*
X2755Y1104D01*
X1Y1103D02*
X8Y1103D01*
X2748Y1103D02*
X2755Y1103D01*
X1Y1102D02*
X8Y1102D01*
X2748Y1102D02*
X2755Y1102D01*
X1Y1101D02*
X8Y1101D01*
X2748Y1101D02*
X2755Y1101D01*
X1Y1100D02*
X8Y1100D01*
X2748Y1100D02*
X2755Y1100D01*
X1Y1099D02*
X8Y1099D01*
X2748Y1099D02*
X2755Y1099D01*
X1Y1098D02*
X8Y1098D01*
X2748Y1098D02*
X2755Y1098D01*
X1Y1097D02*
X8Y1097D01*
X2748Y1097D02*
X2755Y1097D01*
X1Y1096D02*
X8Y1096D01*
X2748Y1096D02*
X2755Y1096D01*
X1Y1095D02*
X8Y1095D01*
X2748Y1095D02*
X2755Y1095D01*
X1Y1094D02*
X8Y1094D01*
X2748Y1094D02*
X2755Y1094D01*
X1Y1093D02*
X8Y1093D01*
X2748Y1093D02*
X2755Y1093D01*
X1Y1092D02*
X8Y1092D01*
X2748Y1092D02*
X2755Y1092D01*
X1Y1091D02*
X8Y1091D01*
X2748Y1091D02*
X2755Y1091D01*
X1Y1090D02*
X8Y1090D01*
X2748Y1090D02*
X2755Y1090D01*
X1Y1089D02*
X8Y1089D01*
X2748Y1089D02*
X2755Y1089D01*
X1Y1088D02*
X8Y1088D01*
X2748Y1088D02*
X2755Y1088D01*
X1Y1087D02*
X8Y1087D01*
X2748Y1087D02*
X2755Y1087D01*
X1Y1086D02*
X8Y1086D01*
X2748Y1086D02*
X2755Y1086D01*
X1Y1085D02*
X8Y1085D01*
X2748Y1085D02*
X2755Y1085D01*
X1Y1084D02*
X8Y1084D01*
X2748Y1084D02*
X2755Y1084D01*
X1Y1083D02*
X8Y1083D01*
X2748Y1083D02*
X2755Y1083D01*
X1Y1082D02*
X8Y1082D01*
X2748Y1082D02*
X2755Y1082D01*
X1Y1081D02*
X8Y1081D01*
X2748Y1081D02*
X2755Y1081D01*
X1Y1080D02*
X8Y1080D01*
X2748Y1080D02*
X2755Y1080D01*
X1Y1079D02*
X8Y1079D01*
X2748Y1079D02*
X2755Y1079D01*
X1Y1078D02*
X8Y1078D01*
X2748Y1078D02*
X2755Y1078D01*
X1Y1077D02*
X8Y1077D01*
X2748Y1077D02*
X2755Y1077D01*
X1Y1076D02*
X8Y1076D01*
X2748Y1076D02*
X2755Y1076D01*
X1Y1075D02*
X8Y1075D01*
X2748Y1075D02*
X2755Y1075D01*
X1Y1074D02*
X8Y1074D01*
X2748Y1074D02*
X2755Y1074D01*
X1Y1073D02*
X8Y1073D01*
X2748Y1073D02*
X2755Y1073D01*
X1Y1072D02*
X8Y1072D01*
X2748Y1072D02*
X2755Y1072D01*
X1Y1071D02*
X8Y1071D01*
X2748Y1071D02*
X2755Y1071D01*
X1Y1070D02*
X8Y1070D01*
X2748Y1070D02*
X2755Y1070D01*
X1Y1069D02*
X8Y1069D01*
X2748Y1069D02*
X2755Y1069D01*
X1Y1068D02*
X8Y1068D01*
X2748Y1068D02*
X2755Y1068D01*
X1Y1067D02*
X8Y1067D01*
X2748Y1067D02*
X2755Y1067D01*
X1Y1066D02*
X8Y1066D01*
X2748Y1066D02*
X2755Y1066D01*
X1Y1065D02*
X8Y1065D01*
X2748Y1065D02*
X2755Y1065D01*
X1Y1064D02*
X8Y1064D01*
X2748Y1064D02*
X2755Y1064D01*
X1Y1063D02*
X8Y1063D01*
X2748Y1063D02*
X2755Y1063D01*
X1Y1062D02*
X8Y1062D01*
X2748Y1062D02*
X2755Y1062D01*
X1Y1061D02*
X8Y1061D01*
X2748Y1061D02*
X2755Y1061D01*
X1Y1060D02*
X8Y1060D01*
X2748Y1060D02*
X2755Y1060D01*
X1Y1059D02*
X8Y1059D01*
X2748Y1059D02*
X2755Y1059D01*
X1Y1058D02*
X8Y1058D01*
X2748Y1058D02*
X2755Y1058D01*
X1Y1057D02*
X8Y1057D01*
X2748Y1057D02*
X2755Y1057D01*
X1Y1056D02*
X8Y1056D01*
X2748Y1056D02*
X2755Y1056D01*
X1Y1055D02*
X8Y1055D01*
X2748Y1055D02*
X2755Y1055D01*
X1Y1054D02*
X8Y1054D01*
X2748Y1054D02*
X2755Y1054D01*
X1Y1053D02*
X8Y1053D01*
X2748Y1053D02*
X2755Y1053D01*
X1Y1052D02*
X8Y1052D01*
X2748Y1052D02*
X2755Y1052D01*
X1Y1051D02*
X8Y1051D01*
X2748Y1051D02*
X2755Y1051D01*
X1Y1050D02*
X8Y1050D01*
X2748Y1050D02*
X2755Y1050D01*
X1Y1049D02*
X8Y1049D01*
X2748Y1049D02*
X2755Y1049D01*
X1Y1048D02*
X8Y1048D01*
X2748Y1048D02*
X2755Y1048D01*
X1Y1047D02*
X8Y1047D01*
X2748Y1047D02*
X2755Y1047D01*
X1Y1046D02*
X8Y1046D01*
X2748Y1046D02*
X2755Y1046D01*
X1Y1045D02*
X8Y1045D01*
X2748Y1045D02*
X2755Y1045D01*
X1Y1044D02*
X8Y1044D01*
X2748Y1044D02*
X2755Y1044D01*
X1Y1043D02*
X8Y1043D01*
X2748Y1043D02*
X2755Y1043D01*
X1Y1042D02*
X8Y1042D01*
X2748Y1042D02*
X2755Y1042D01*
X1Y1041D02*
X8Y1041D01*
X2748Y1041D02*
X2755Y1041D01*
X1Y1040D02*
X8Y1040D01*
X2748Y1040D02*
X2755Y1040D01*
X1Y1039D02*
X8Y1039D01*
X2748Y1039D02*
X2755Y1039D01*
X1Y1038D02*
X8Y1038D01*
X2748Y1038D02*
X2755Y1038D01*
X1Y1037D02*
X8Y1037D01*
X2748Y1037D02*
X2755Y1037D01*
X1Y1036D02*
X8Y1036D01*
X2748Y1036D02*
X2755Y1036D01*
X1Y1035D02*
X8Y1035D01*
X2748Y1035D02*
X2755Y1035D01*
X1Y1034D02*
X8Y1034D01*
X2748Y1034D02*
X2755Y1034D01*
X1Y1033D02*
X8Y1033D01*
X2748Y1033D02*
X2755Y1033D01*
X1Y1032D02*
X8Y1032D01*
X2748Y1032D02*
X2755Y1032D01*
X1Y1031D02*
X8Y1031D01*
X2748Y1031D02*
X2755Y1031D01*
X1Y1030D02*
X8Y1030D01*
X2748Y1030D02*
X2755Y1030D01*
X1Y1029D02*
X8Y1029D01*
X2748Y1029D02*
X2755Y1029D01*
X1Y1028D02*
X8Y1028D01*
X2748Y1028D02*
X2755Y1028D01*
X1Y1027D02*
X8Y1027D01*
X2748Y1027D02*
X2755Y1027D01*
X1Y1026D02*
X8Y1026D01*
X2748Y1026D02*
X2755Y1026D01*
X1Y1025D02*
X8Y1025D01*
X2748Y1025D02*
X2755Y1025D01*
X1Y1024D02*
X8Y1024D01*
X2748Y1024D02*
X2755Y1024D01*
X1Y1023D02*
X8Y1023D01*
X2748Y1023D02*
X2755Y1023D01*
X1Y1022D02*
X8Y1022D01*
X2748Y1022D02*
X2755Y1022D01*
X1Y1021D02*
X8Y1021D01*
X2748Y1021D02*
X2755Y1021D01*
X1Y1020D02*
X8Y1020D01*
X2748Y1020D02*
X2755Y1020D01*
X1Y1019D02*
X8Y1019D01*
X2748Y1019D02*
X2755Y1019D01*
X1Y1018D02*
X8Y1018D01*
X2748Y1018D02*
X2755Y1018D01*
X1Y1017D02*
X8Y1017D01*
X2748Y1017D02*
X2755Y1017D01*
X1Y1016D02*
X8Y1016D01*
X2748Y1016D02*
X2755Y1016D01*
X1Y1015D02*
X8Y1015D01*
X2748Y1015D02*
X2755Y1015D01*
X1Y1014D02*
X8Y1014D01*
X2748Y1014D02*
X2755Y1014D01*
X1Y1013D02*
X8Y1013D01*
X2748Y1013D02*
X2755Y1013D01*
X1Y1012D02*
X8Y1012D01*
X2748Y1012D02*
X2755Y1012D01*
X1Y1011D02*
X8Y1011D01*
X2748Y1011D02*
X2755Y1011D01*
X1Y1010D02*
X8Y1010D01*
X2748Y1010D02*
X2755Y1010D01*
X1Y1009D02*
X8Y1009D01*
X2748Y1009D02*
X2755Y1009D01*
X1Y1008D02*
X8Y1008D01*
X2748Y1008D02*
X2755Y1008D01*
X1Y1007D02*
X8Y1007D01*
X2748Y1007D02*
X2755Y1007D01*
X1Y1006D02*
X8Y1006D01*
X2748Y1006D02*
X2755Y1006D01*
X1Y1005D02*
X8Y1005D01*
X2748Y1005D02*
X2755Y1005D01*
X1Y1004D02*
X8Y1004D01*
X2748Y1004D02*
X2755Y1004D01*
X1Y1003D02*
X8Y1003D01*
X2748Y1003D02*
X2755Y1003D01*
X1Y1002D02*
X8Y1002D01*
X2748Y1002D02*
X2755Y1002D01*
X1Y1001D02*
X8Y1001D01*
X2748Y1001D02*
X2755Y1001D01*
X1Y1000D02*
X8Y1000D01*
X2748Y1000D02*
X2755Y1000D01*
X1Y999D02*
X8Y999D01*
X2748Y999D02*
X2755Y999D01*
X1Y998D02*
X8Y998D01*
X2748Y998D02*
X2755Y998D01*
X1Y997D02*
X8Y997D01*
X2748Y997D02*
X2755Y997D01*
X1Y996D02*
X8Y996D01*
X2748Y996D02*
X2755Y996D01*
X1Y995D02*
X8Y995D01*
X2748Y995D02*
X2755Y995D01*
X1Y994D02*
X8Y994D01*
X2748Y994D02*
X2755Y994D01*
X1Y993D02*
X8Y993D01*
X2748Y993D02*
X2755Y993D01*
X1Y992D02*
X8Y992D01*
X2748Y992D02*
X2755Y992D01*
X1Y991D02*
X8Y991D01*
X2748Y991D02*
X2755Y991D01*
X1Y990D02*
X8Y990D01*
X2748Y990D02*
X2755Y990D01*
X1Y989D02*
X8Y989D01*
X2748Y989D02*
X2755Y989D01*
X1Y988D02*
X8Y988D01*
X2748Y988D02*
X2755Y988D01*
X1Y987D02*
X8Y987D01*
X2748Y987D02*
X2755Y987D01*
X1Y986D02*
X8Y986D01*
X2748Y986D02*
X2755Y986D01*
X1Y985D02*
X8Y985D01*
X2748Y985D02*
X2755Y985D01*
X1Y984D02*
X8Y984D01*
X2748Y984D02*
X2755Y984D01*
X1Y983D02*
X8Y983D01*
X2748Y983D02*
X2755Y983D01*
X1Y982D02*
X8Y982D01*
X2748Y982D02*
X2755Y982D01*
X1Y981D02*
X8Y981D01*
X2748Y981D02*
X2755Y981D01*
X1Y980D02*
X8Y980D01*
X2748Y980D02*
X2755Y980D01*
X1Y979D02*
X8Y979D01*
X2748Y979D02*
X2755Y979D01*
X1Y978D02*
X8Y978D01*
X2748Y978D02*
X2755Y978D01*
X1Y977D02*
X8Y977D01*
X2748Y977D02*
X2755Y977D01*
X1Y976D02*
X8Y976D01*
X2748Y976D02*
X2755Y976D01*
X1Y975D02*
X8Y975D01*
X2748Y975D02*
X2755Y975D01*
X1Y974D02*
X8Y974D01*
X2748Y974D02*
X2755Y974D01*
X1Y973D02*
X8Y973D01*
X2748Y973D02*
X2755Y973D01*
X1Y972D02*
X8Y972D01*
X2748Y972D02*
X2755Y972D01*
X1Y971D02*
X8Y971D01*
X2748Y971D02*
X2755Y971D01*
X1Y970D02*
X8Y970D01*
X2748Y970D02*
X2755Y970D01*
X1Y969D02*
X8Y969D01*
X2748Y969D02*
X2755Y969D01*
X1Y968D02*
X8Y968D01*
X2748Y968D02*
X2755Y968D01*
X1Y967D02*
X8Y967D01*
X2748Y967D02*
X2755Y967D01*
X1Y966D02*
X8Y966D01*
X2748Y966D02*
X2755Y966D01*
X1Y965D02*
X8Y965D01*
X2748Y965D02*
X2755Y965D01*
X1Y964D02*
X8Y964D01*
X2748Y964D02*
X2755Y964D01*
X1Y963D02*
X8Y963D01*
X2748Y963D02*
X2755Y963D01*
X1Y962D02*
X8Y962D01*
X2748Y962D02*
X2755Y962D01*
X1Y961D02*
X8Y961D01*
X2748Y961D02*
X2755Y961D01*
X1Y960D02*
X8Y960D01*
X2748Y960D02*
X2755Y960D01*
X1Y959D02*
X8Y959D01*
X2748Y959D02*
X2755Y959D01*
X1Y958D02*
X8Y958D01*
X2748Y958D02*
X2755Y958D01*
X1Y957D02*
X8Y957D01*
X2748Y957D02*
X2755Y957D01*
X1Y956D02*
X8Y956D01*
X2748Y956D02*
X2755Y956D01*
X1Y955D02*
X8Y955D01*
X2748Y955D02*
X2755Y955D01*
X1Y954D02*
X8Y954D01*
X2748Y954D02*
X2755Y954D01*
X1Y953D02*
X8Y953D01*
X2748Y953D02*
X2755Y953D01*
X1Y952D02*
X8Y952D01*
X2748Y952D02*
X2755Y952D01*
X1Y951D02*
X8Y951D01*
X2748Y951D02*
X2755Y951D01*
X1Y950D02*
X8Y950D01*
X2748Y950D02*
X2755Y950D01*
X1Y949D02*
X8Y949D01*
X2748Y949D02*
X2755Y949D01*
X1Y948D02*
X8Y948D01*
X2748Y948D02*
X2755Y948D01*
X1Y947D02*
X8Y947D01*
X2748Y947D02*
X2755Y947D01*
X1Y946D02*
X8Y946D01*
X2748Y946D02*
X2755Y946D01*
X1Y945D02*
X8Y945D01*
X2748Y945D02*
X2755Y945D01*
X1Y944D02*
X8Y944D01*
X2748Y944D02*
X2755Y944D01*
X1Y943D02*
X8Y943D01*
X2748Y943D02*
X2755Y943D01*
X1Y942D02*
X8Y942D01*
X2748Y942D02*
X2755Y942D01*
X1Y941D02*
X8Y941D01*
X2748Y941D02*
X2755Y941D01*
X1Y940D02*
X8Y940D01*
X2748Y940D02*
X2755Y940D01*
X1Y939D02*
X8Y939D01*
X2748Y939D02*
X2755Y939D01*
X1Y938D02*
X8Y938D01*
X2748Y938D02*
X2755Y938D01*
X1Y937D02*
X8Y937D01*
X2748Y937D02*
X2755Y937D01*
X1Y936D02*
X8Y936D01*
X2748Y936D02*
X2755Y936D01*
X1Y935D02*
X8Y935D01*
X2748Y935D02*
X2755Y935D01*
X1Y934D02*
X8Y934D01*
X2748Y934D02*
X2755Y934D01*
X1Y933D02*
X8Y933D01*
X2748Y933D02*
X2755Y933D01*
X1Y932D02*
X8Y932D01*
X2748Y932D02*
X2755Y932D01*
X1Y931D02*
X8Y931D01*
X2748Y931D02*
X2755Y931D01*
X1Y930D02*
X8Y930D01*
X2748Y930D02*
X2755Y930D01*
X1Y929D02*
X8Y929D01*
X2748Y929D02*
X2755Y929D01*
X1Y928D02*
X8Y928D01*
X2748Y928D02*
X2755Y928D01*
X1Y927D02*
X8Y927D01*
X2748Y927D02*
X2755Y927D01*
X1Y926D02*
X8Y926D01*
X2748Y926D02*
X2755Y926D01*
X1Y925D02*
X8Y925D01*
X2748Y925D02*
X2755Y925D01*
X1Y924D02*
X8Y924D01*
X2748Y924D02*
X2755Y924D01*
X1Y923D02*
X8Y923D01*
X2748Y923D02*
X2755Y923D01*
X1Y922D02*
X8Y922D01*
X2748Y922D02*
X2755Y922D01*
X1Y921D02*
X8Y921D01*
X2748Y921D02*
X2755Y921D01*
X1Y920D02*
X8Y920D01*
X2748Y920D02*
X2755Y920D01*
X1Y919D02*
X8Y919D01*
X2748Y919D02*
X2755Y919D01*
X1Y918D02*
X8Y918D01*
X2748Y918D02*
X2755Y918D01*
X1Y917D02*
X8Y917D01*
X2748Y917D02*
X2755Y917D01*
X1Y916D02*
X8Y916D01*
X2748Y916D02*
X2755Y916D01*
X1Y915D02*
X8Y915D01*
X2748Y915D02*
X2755Y915D01*
X1Y914D02*
X8Y914D01*
X2748Y914D02*
X2755Y914D01*
X1Y913D02*
X8Y913D01*
X2748Y913D02*
X2755Y913D01*
X1Y912D02*
X8Y912D01*
X2748Y912D02*
X2755Y912D01*
X1Y911D02*
X8Y911D01*
X2748Y911D02*
X2755Y911D01*
X1Y910D02*
X8Y910D01*
X2748Y910D02*
X2755Y910D01*
X1Y909D02*
X8Y909D01*
X2748Y909D02*
X2755Y909D01*
X1Y908D02*
X8Y908D01*
X2748Y908D02*
X2755Y908D01*
X1Y907D02*
X8Y907D01*
X2748Y907D02*
X2755Y907D01*
X1Y906D02*
X8Y906D01*
X2748Y906D02*
X2755Y906D01*
X1Y905D02*
X8Y905D01*
X2748Y905D02*
X2755Y905D01*
X1Y904D02*
X8Y904D01*
X2748Y904D02*
X2755Y904D01*
X1Y903D02*
X8Y903D01*
X2748Y903D02*
X2755Y903D01*
X1Y902D02*
X8Y902D01*
X2748Y902D02*
X2755Y902D01*
X1Y901D02*
X8Y901D01*
X2748Y901D02*
X2755Y901D01*
X1Y900D02*
X8Y900D01*
X2748Y900D02*
X2755Y900D01*
X1Y899D02*
X8Y899D01*
X2748Y899D02*
X2755Y899D01*
X1Y898D02*
X8Y898D01*
X2748Y898D02*
X2755Y898D01*
X1Y897D02*
X8Y897D01*
X2748Y897D02*
X2755Y897D01*
X1Y896D02*
X8Y896D01*
X2748Y896D02*
X2755Y896D01*
X1Y895D02*
X8Y895D01*
X2748Y895D02*
X2755Y895D01*
X1Y894D02*
X8Y894D01*
X2748Y894D02*
X2755Y894D01*
X1Y893D02*
X8Y893D01*
X2748Y893D02*
X2755Y893D01*
X1Y892D02*
X8Y892D01*
X2748Y892D02*
X2755Y892D01*
X1Y891D02*
X8Y891D01*
X2748Y891D02*
X2755Y891D01*
X1Y890D02*
X8Y890D01*
X2748Y890D02*
X2755Y890D01*
X1Y889D02*
X8Y889D01*
X2748Y889D02*
X2755Y889D01*
X1Y888D02*
X8Y888D01*
X2748Y888D02*
X2755Y888D01*
X1Y887D02*
X8Y887D01*
X2748Y887D02*
X2755Y887D01*
X1Y886D02*
X8Y886D01*
X2748Y886D02*
X2755Y886D01*
X1Y885D02*
X8Y885D01*
X2748Y885D02*
X2755Y885D01*
X1Y884D02*
X8Y884D01*
X2748Y884D02*
X2755Y884D01*
X1Y883D02*
X8Y883D01*
X2748Y883D02*
X2755Y883D01*
X1Y882D02*
X8Y882D01*
X2748Y882D02*
X2755Y882D01*
X1Y881D02*
X8Y881D01*
X2748Y881D02*
X2755Y881D01*
X1Y880D02*
X8Y880D01*
X2748Y880D02*
X2755Y880D01*
X1Y879D02*
X8Y879D01*
X2748Y879D02*
X2755Y879D01*
X1Y878D02*
X8Y878D01*
X2748Y878D02*
X2755Y878D01*
X1Y877D02*
X8Y877D01*
X2748Y877D02*
X2755Y877D01*
X1Y876D02*
X8Y876D01*
X2748Y876D02*
X2755Y876D01*
X1Y875D02*
X8Y875D01*
X2748Y875D02*
X2755Y875D01*
X1Y874D02*
X8Y874D01*
X2748Y874D02*
X2755Y874D01*
X1Y873D02*
X8Y873D01*
X2748Y873D02*
X2755Y873D01*
X1Y872D02*
X8Y872D01*
X2748Y872D02*
X2755Y872D01*
X1Y871D02*
X8Y871D01*
X2748Y871D02*
X2755Y871D01*
X1Y870D02*
X8Y870D01*
X2748Y870D02*
X2755Y870D01*
X1Y869D02*
X8Y869D01*
X2748Y869D02*
X2755Y869D01*
X1Y868D02*
X8Y868D01*
X2748Y868D02*
X2755Y868D01*
X1Y867D02*
X8Y867D01*
X2748Y867D02*
X2755Y867D01*
X1Y866D02*
X8Y866D01*
X2748Y866D02*
X2755Y866D01*
X1Y865D02*
X8Y865D01*
X2748Y865D02*
X2755Y865D01*
X1Y864D02*
X8Y864D01*
X2748Y864D02*
X2755Y864D01*
X1Y863D02*
X8Y863D01*
X2748Y863D02*
X2755Y863D01*
X1Y862D02*
X8Y862D01*
X2748Y862D02*
X2755Y862D01*
X1Y861D02*
X8Y861D01*
X2748Y861D02*
X2755Y861D01*
X1Y860D02*
X8Y860D01*
X2748Y860D02*
X2755Y860D01*
X1Y859D02*
X8Y859D01*
X2748Y859D02*
X2755Y859D01*
X1Y858D02*
X8Y858D01*
X2748Y858D02*
X2755Y858D01*
X1Y857D02*
X8Y857D01*
X2748Y857D02*
X2755Y857D01*
X1Y856D02*
X8Y856D01*
X2748Y856D02*
X2755Y856D01*
X1Y855D02*
X8Y855D01*
X2748Y855D02*
X2755Y855D01*
X1Y854D02*
X8Y854D01*
X2748Y854D02*
X2755Y854D01*
X1Y853D02*
X8Y853D01*
X2748Y853D02*
X2755Y853D01*
X1Y852D02*
X8Y852D01*
X2748Y852D02*
X2755Y852D01*
X1Y851D02*
X8Y851D01*
X2748Y851D02*
X2755Y851D01*
X1Y850D02*
X8Y850D01*
X2748Y850D02*
X2755Y850D01*
X1Y849D02*
X8Y849D01*
X2748Y849D02*
X2755Y849D01*
X1Y848D02*
X8Y848D01*
X2748Y848D02*
X2755Y848D01*
X1Y847D02*
X8Y847D01*
X2748Y847D02*
X2755Y847D01*
X1Y846D02*
X8Y846D01*
X2748Y846D02*
X2755Y846D01*
X1Y845D02*
X8Y845D01*
X2748Y845D02*
X2755Y845D01*
X1Y844D02*
X8Y844D01*
X2748Y844D02*
X2755Y844D01*
X1Y843D02*
X8Y843D01*
X2748Y843D02*
X2755Y843D01*
X1Y842D02*
X8Y842D01*
X2748Y842D02*
X2755Y842D01*
X1Y841D02*
X8Y841D01*
X2748Y841D02*
X2755Y841D01*
X1Y840D02*
X8Y840D01*
X2748Y840D02*
X2755Y840D01*
X1Y839D02*
X8Y839D01*
X2748Y839D02*
X2755Y839D01*
X1Y838D02*
X8Y838D01*
X2748Y838D02*
X2755Y838D01*
X1Y837D02*
X8Y837D01*
X2748Y837D02*
X2755Y837D01*
X1Y836D02*
X8Y836D01*
X2748Y836D02*
X2755Y836D01*
X1Y835D02*
X8Y835D01*
X2748Y835D02*
X2755Y835D01*
X1Y834D02*
X8Y834D01*
X2748Y834D02*
X2755Y834D01*
X1Y833D02*
X8Y833D01*
X2748Y833D02*
X2755Y833D01*
X1Y832D02*
X8Y832D01*
X2748Y832D02*
X2755Y832D01*
X1Y831D02*
X8Y831D01*
X2748Y831D02*
X2755Y831D01*
X1Y830D02*
X8Y830D01*
X2748Y830D02*
X2755Y830D01*
X1Y829D02*
X8Y829D01*
X2748Y829D02*
X2755Y829D01*
X1Y828D02*
X8Y828D01*
X2748Y828D02*
X2755Y828D01*
X1Y827D02*
X8Y827D01*
X2748Y827D02*
X2755Y827D01*
X1Y826D02*
X8Y826D01*
X2748Y826D02*
X2755Y826D01*
X1Y825D02*
X8Y825D01*
X2748Y825D02*
X2755Y825D01*
X1Y824D02*
X8Y824D01*
X2748Y824D02*
X2755Y824D01*
X1Y823D02*
X8Y823D01*
X2748Y823D02*
X2755Y823D01*
X1Y822D02*
X8Y822D01*
X2748Y822D02*
X2755Y822D01*
X1Y821D02*
X8Y821D01*
X2748Y821D02*
X2755Y821D01*
X1Y820D02*
X8Y820D01*
X2748Y820D02*
X2755Y820D01*
X1Y819D02*
X8Y819D01*
X2748Y819D02*
X2755Y819D01*
X1Y818D02*
X8Y818D01*
X2748Y818D02*
X2755Y818D01*
X1Y817D02*
X8Y817D01*
X2748Y817D02*
X2755Y817D01*
X1Y816D02*
X8Y816D01*
X2748Y816D02*
X2755Y816D01*
X1Y815D02*
X8Y815D01*
X2748Y815D02*
X2755Y815D01*
X1Y814D02*
X8Y814D01*
X2748Y814D02*
X2755Y814D01*
X1Y813D02*
X8Y813D01*
X2748Y813D02*
X2755Y813D01*
X1Y812D02*
X8Y812D01*
X2748Y812D02*
X2755Y812D01*
X1Y811D02*
X8Y811D01*
X2748Y811D02*
X2755Y811D01*
X1Y810D02*
X8Y810D01*
X2748Y810D02*
X2755Y810D01*
X1Y809D02*
X8Y809D01*
X2748Y809D02*
X2755Y809D01*
X1Y808D02*
X8Y808D01*
X2748Y808D02*
X2755Y808D01*
X1Y807D02*
X8Y807D01*
X2748Y807D02*
X2755Y807D01*
X1Y806D02*
X8Y806D01*
X2748Y806D02*
X2755Y806D01*
X1Y805D02*
X8Y805D01*
X2748Y805D02*
X2755Y805D01*
X1Y804D02*
X8Y804D01*
X2748Y804D02*
X2755Y804D01*
X1Y803D02*
X8Y803D01*
X2748Y803D02*
X2755Y803D01*
X1Y802D02*
X8Y802D01*
X2748Y802D02*
X2755Y802D01*
X1Y801D02*
X8Y801D01*
X2748Y801D02*
X2755Y801D01*
X1Y800D02*
X8Y800D01*
X2748Y800D02*
X2755Y800D01*
X1Y799D02*
X8Y799D01*
X2748Y799D02*
X2755Y799D01*
X1Y798D02*
X8Y798D01*
X2748Y798D02*
X2755Y798D01*
X1Y797D02*
X8Y797D01*
X2748Y797D02*
X2755Y797D01*
X1Y796D02*
X8Y796D01*
X2748Y796D02*
X2755Y796D01*
X1Y795D02*
X8Y795D01*
X2748Y795D02*
X2755Y795D01*
X1Y794D02*
X8Y794D01*
X2748Y794D02*
X2755Y794D01*
X1Y793D02*
X8Y793D01*
X2748Y793D02*
X2755Y793D01*
X1Y792D02*
X8Y792D01*
X2748Y792D02*
X2755Y792D01*
X1Y791D02*
X8Y791D01*
X2748Y791D02*
X2755Y791D01*
X1Y790D02*
X8Y790D01*
X2748Y790D02*
X2755Y790D01*
X1Y789D02*
X8Y789D01*
X2748Y789D02*
X2755Y789D01*
X1Y788D02*
X8Y788D01*
X2748Y788D02*
X2755Y788D01*
X1Y787D02*
X8Y787D01*
X2748Y787D02*
X2755Y787D01*
X1Y786D02*
X8Y786D01*
X2748Y786D02*
X2755Y786D01*
X1Y785D02*
X8Y785D01*
X2748Y785D02*
X2755Y785D01*
X1Y784D02*
X8Y784D01*
X2748Y784D02*
X2755Y784D01*
X1Y783D02*
X8Y783D01*
X2748Y783D02*
X2755Y783D01*
X1Y782D02*
X8Y782D01*
X2748Y782D02*
X2755Y782D01*
X1Y781D02*
X8Y781D01*
X2748Y781D02*
X2755Y781D01*
X1Y780D02*
X8Y780D01*
X2748Y780D02*
X2755Y780D01*
X1Y779D02*
X8Y779D01*
X2748Y779D02*
X2755Y779D01*
X1Y778D02*
X8Y778D01*
X2748Y778D02*
X2755Y778D01*
X1Y777D02*
X8Y777D01*
X2748Y777D02*
X2755Y777D01*
X1Y776D02*
X8Y776D01*
X2748Y776D02*
X2755Y776D01*
X1Y775D02*
X8Y775D01*
X2748Y775D02*
X2755Y775D01*
X1Y774D02*
X8Y774D01*
X2748Y774D02*
X2755Y774D01*
X1Y773D02*
X8Y773D01*
X2748Y773D02*
X2755Y773D01*
X1Y772D02*
X8Y772D01*
X2748Y772D02*
X2755Y772D01*
X1Y771D02*
X8Y771D01*
X2748Y771D02*
X2755Y771D01*
X1Y770D02*
X8Y770D01*
X2748Y770D02*
X2755Y770D01*
X1Y769D02*
X8Y769D01*
X2748Y769D02*
X2755Y769D01*
X1Y768D02*
X8Y768D01*
X2748Y768D02*
X2755Y768D01*
X1Y767D02*
X8Y767D01*
X2748Y767D02*
X2755Y767D01*
X1Y766D02*
X8Y766D01*
X2748Y766D02*
X2755Y766D01*
X1Y765D02*
X8Y765D01*
X2748Y765D02*
X2755Y765D01*
X1Y764D02*
X8Y764D01*
X2748Y764D02*
X2755Y764D01*
X1Y763D02*
X8Y763D01*
X2748Y763D02*
X2755Y763D01*
X1Y762D02*
X8Y762D01*
X2748Y762D02*
X2755Y762D01*
X1Y761D02*
X8Y761D01*
X2748Y761D02*
X2755Y761D01*
X1Y760D02*
X8Y760D01*
X2748Y760D02*
X2755Y760D01*
X1Y759D02*
X8Y759D01*
X2748Y759D02*
X2755Y759D01*
X1Y758D02*
X8Y758D01*
X2748Y758D02*
X2755Y758D01*
X1Y757D02*
X8Y757D01*
X2748Y757D02*
X2755Y757D01*
X1Y756D02*
X8Y756D01*
X2748Y756D02*
X2755Y756D01*
X1Y755D02*
X8Y755D01*
X2748Y755D02*
X2755Y755D01*
X1Y754D02*
X8Y754D01*
X2748Y754D02*
X2755Y754D01*
X1Y753D02*
X8Y753D01*
X2748Y753D02*
X2755Y753D01*
X1Y752D02*
X8Y752D01*
X2748Y752D02*
X2755Y752D01*
X1Y751D02*
X8Y751D01*
X2748Y751D02*
X2755Y751D01*
X1Y750D02*
X8Y750D01*
X2748Y750D02*
X2755Y750D01*
X1Y749D02*
X8Y749D01*
X2748Y749D02*
X2755Y749D01*
X1Y748D02*
X8Y748D01*
X2748Y748D02*
X2755Y748D01*
X1Y747D02*
X8Y747D01*
X2748Y747D02*
X2755Y747D01*
X1Y746D02*
X8Y746D01*
X2748Y746D02*
X2755Y746D01*
X1Y745D02*
X8Y745D01*
X2748Y745D02*
X2755Y745D01*
X1Y744D02*
X8Y744D01*
X2748Y744D02*
X2755Y744D01*
X1Y743D02*
X8Y743D01*
X2748Y743D02*
X2755Y743D01*
X1Y742D02*
X8Y742D01*
X2748Y742D02*
X2755Y742D01*
X1Y741D02*
X8Y741D01*
X2748Y741D02*
X2755Y741D01*
X1Y740D02*
X8Y740D01*
X2748Y740D02*
X2755Y740D01*
X1Y739D02*
X8Y739D01*
X2748Y739D02*
X2755Y739D01*
X1Y738D02*
X8Y738D01*
X2748Y738D02*
X2755Y738D01*
X1Y737D02*
X8Y737D01*
X2748Y737D02*
X2755Y737D01*
X1Y736D02*
X8Y736D01*
X2748Y736D02*
X2755Y736D01*
X1Y735D02*
X8Y735D01*
X2748Y735D02*
X2755Y735D01*
X1Y734D02*
X8Y734D01*
X2748Y734D02*
X2755Y734D01*
X1Y733D02*
X8Y733D01*
X2748Y733D02*
X2755Y733D01*
X1Y732D02*
X8Y732D01*
X2748Y732D02*
X2755Y732D01*
X1Y731D02*
X8Y731D01*
X2748Y731D02*
X2755Y731D01*
X1Y730D02*
X8Y730D01*
X2748Y730D02*
X2755Y730D01*
X1Y729D02*
X8Y729D01*
X2748Y729D02*
X2755Y729D01*
X1Y728D02*
X8Y728D01*
X2748Y728D02*
X2755Y728D01*
X1Y727D02*
X8Y727D01*
X2748Y727D02*
X2755Y727D01*
X1Y726D02*
X8Y726D01*
X2748Y726D02*
X2755Y726D01*
X1Y725D02*
X8Y725D01*
X2748Y725D02*
X2755Y725D01*
X1Y724D02*
X8Y724D01*
X2748Y724D02*
X2755Y724D01*
X1Y723D02*
X8Y723D01*
X2748Y723D02*
X2755Y723D01*
X1Y722D02*
X8Y722D01*
X2748Y722D02*
X2755Y722D01*
X1Y721D02*
X8Y721D01*
X2748Y721D02*
X2755Y721D01*
X1Y720D02*
X8Y720D01*
X2748Y720D02*
X2755Y720D01*
X1Y719D02*
X8Y719D01*
X2748Y719D02*
X2755Y719D01*
X1Y718D02*
X8Y718D01*
X2748Y718D02*
X2755Y718D01*
X1Y717D02*
X8Y717D01*
X2748Y717D02*
X2755Y717D01*
X1Y716D02*
X8Y716D01*
X2748Y716D02*
X2755Y716D01*
X1Y715D02*
X8Y715D01*
X2748Y715D02*
X2755Y715D01*
X1Y714D02*
X8Y714D01*
X2748Y714D02*
X2755Y714D01*
X1Y713D02*
X8Y713D01*
X2748Y713D02*
X2755Y713D01*
X1Y712D02*
X8Y712D01*
X2748Y712D02*
X2755Y712D01*
X1Y711D02*
X8Y711D01*
X2748Y711D02*
X2755Y711D01*
X1Y710D02*
X8Y710D01*
X2748Y710D02*
X2755Y710D01*
X1Y709D02*
X8Y709D01*
X2748Y709D02*
X2755Y709D01*
X1Y708D02*
X8Y708D01*
X2748Y708D02*
X2755Y708D01*
X1Y707D02*
X8Y707D01*
X2748Y707D02*
X2755Y707D01*
X1Y706D02*
X8Y706D01*
X2748Y706D02*
X2755Y706D01*
X1Y705D02*
X8Y705D01*
X2748Y705D02*
X2755Y705D01*
X1Y704D02*
X8Y704D01*
X2748Y704D02*
X2755Y704D01*
X1Y703D02*
X8Y703D01*
X2748Y703D02*
X2755Y703D01*
X1Y702D02*
X8Y702D01*
X2748Y702D02*
X2755Y702D01*
X1Y701D02*
X8Y701D01*
X2748Y701D02*
X2755Y701D01*
X1Y700D02*
X8Y700D01*
X2748Y700D02*
X2755Y700D01*
X1Y699D02*
X8Y699D01*
X2748Y699D02*
X2755Y699D01*
X1Y698D02*
X8Y698D01*
X2748Y698D02*
X2755Y698D01*
X1Y697D02*
X8Y697D01*
X2748Y697D02*
X2755Y697D01*
X1Y696D02*
X8Y696D01*
X2748Y696D02*
X2755Y696D01*
X1Y695D02*
X8Y695D01*
X2748Y695D02*
X2755Y695D01*
X1Y694D02*
X8Y694D01*
X2748Y694D02*
X2755Y694D01*
X1Y693D02*
X8Y693D01*
X2748Y693D02*
X2755Y693D01*
X1Y692D02*
X8Y692D01*
X2748Y692D02*
X2755Y692D01*
X1Y691D02*
X8Y691D01*
X2748Y691D02*
X2755Y691D01*
X1Y690D02*
X8Y690D01*
X2748Y690D02*
X2755Y690D01*
X1Y689D02*
X8Y689D01*
X2748Y689D02*
X2755Y689D01*
X1Y688D02*
X8Y688D01*
X2748Y688D02*
X2755Y688D01*
X1Y687D02*
X8Y687D01*
X2748Y687D02*
X2755Y687D01*
X1Y686D02*
X8Y686D01*
X2748Y686D02*
X2755Y686D01*
X1Y685D02*
X8Y685D01*
X2748Y685D02*
X2755Y685D01*
X1Y684D02*
X8Y684D01*
X2748Y684D02*
X2755Y684D01*
X1Y683D02*
X8Y683D01*
X2748Y683D02*
X2755Y683D01*
X1Y682D02*
X8Y682D01*
X2748Y682D02*
X2755Y682D01*
X1Y681D02*
X8Y681D01*
X2748Y681D02*
X2755Y681D01*
X1Y680D02*
X8Y680D01*
X2748Y680D02*
X2755Y680D01*
X1Y679D02*
X8Y679D01*
X2748Y679D02*
X2755Y679D01*
X1Y678D02*
X8Y678D01*
X2748Y678D02*
X2755Y678D01*
X1Y677D02*
X8Y677D01*
X2748Y677D02*
X2755Y677D01*
X1Y676D02*
X8Y676D01*
X2748Y676D02*
X2755Y676D01*
X1Y675D02*
X8Y675D01*
X2748Y675D02*
X2755Y675D01*
X1Y674D02*
X8Y674D01*
X2748Y674D02*
X2755Y674D01*
X1Y673D02*
X8Y673D01*
X2748Y673D02*
X2755Y673D01*
X1Y672D02*
X8Y672D01*
X2748Y672D02*
X2755Y672D01*
X1Y671D02*
X8Y671D01*
X2748Y671D02*
X2755Y671D01*
X1Y670D02*
X8Y670D01*
X2748Y670D02*
X2755Y670D01*
X1Y669D02*
X8Y669D01*
X2748Y669D02*
X2755Y669D01*
X1Y668D02*
X8Y668D01*
X2748Y668D02*
X2755Y668D01*
X1Y667D02*
X8Y667D01*
X2748Y667D02*
X2755Y667D01*
X1Y666D02*
X8Y666D01*
X2748Y666D02*
X2755Y666D01*
X1Y665D02*
X8Y665D01*
X2748Y665D02*
X2755Y665D01*
X1Y664D02*
X8Y664D01*
X2748Y664D02*
X2755Y664D01*
X1Y663D02*
X8Y663D01*
X2748Y663D02*
X2755Y663D01*
X1Y662D02*
X8Y662D01*
X2748Y662D02*
X2755Y662D01*
X1Y661D02*
X8Y661D01*
X2748Y661D02*
X2755Y661D01*
X1Y660D02*
X8Y660D01*
X2748Y660D02*
X2755Y660D01*
X1Y659D02*
X8Y659D01*
X2748Y659D02*
X2755Y659D01*
X1Y658D02*
X8Y658D01*
X2748Y658D02*
X2755Y658D01*
X1Y657D02*
X8Y657D01*
X2748Y657D02*
X2755Y657D01*
X1Y656D02*
X8Y656D01*
X2748Y656D02*
X2755Y656D01*
X1Y655D02*
X8Y655D01*
X2748Y655D02*
X2755Y655D01*
X1Y654D02*
X8Y654D01*
X2748Y654D02*
X2755Y654D01*
X1Y653D02*
X8Y653D01*
X2748Y653D02*
X2755Y653D01*
X1Y652D02*
X8Y652D01*
X2748Y652D02*
X2755Y652D01*
X1Y651D02*
X8Y651D01*
X2748Y651D02*
X2755Y651D01*
X1Y650D02*
X8Y650D01*
X2748Y650D02*
X2755Y650D01*
X1Y649D02*
X8Y649D01*
X2748Y649D02*
X2755Y649D01*
X1Y648D02*
X8Y648D01*
X2748Y648D02*
X2755Y648D01*
X1Y647D02*
X8Y647D01*
X2748Y647D02*
X2755Y647D01*
X1Y646D02*
X8Y646D01*
X2748Y646D02*
X2755Y646D01*
X1Y645D02*
X8Y645D01*
X2748Y645D02*
X2755Y645D01*
X1Y644D02*
X8Y644D01*
X2748Y644D02*
X2755Y644D01*
X1Y643D02*
X8Y643D01*
X2748Y643D02*
X2755Y643D01*
X1Y642D02*
X8Y642D01*
X2748Y642D02*
X2755Y642D01*
X1Y641D02*
X8Y641D01*
X2748Y641D02*
X2755Y641D01*
X1Y640D02*
X8Y640D01*
X2748Y640D02*
X2755Y640D01*
X1Y639D02*
X8Y639D01*
X2748Y639D02*
X2755Y639D01*
X1Y638D02*
X8Y638D01*
X2748Y638D02*
X2755Y638D01*
X1Y637D02*
X8Y637D01*
X2748Y637D02*
X2755Y637D01*
X1Y636D02*
X8Y636D01*
X2748Y636D02*
X2755Y636D01*
X1Y635D02*
X8Y635D01*
X2748Y635D02*
X2755Y635D01*
X1Y634D02*
X8Y634D01*
X2748Y634D02*
X2755Y634D01*
X1Y633D02*
X8Y633D01*
X2748Y633D02*
X2755Y633D01*
X1Y632D02*
X8Y632D01*
X2748Y632D02*
X2755Y632D01*
X1Y631D02*
X8Y631D01*
X2748Y631D02*
X2755Y631D01*
X1Y630D02*
X8Y630D01*
X2748Y630D02*
X2755Y630D01*
X1Y629D02*
X8Y629D01*
X2748Y629D02*
X2755Y629D01*
X1Y628D02*
X8Y628D01*
X2748Y628D02*
X2755Y628D01*
X1Y627D02*
X8Y627D01*
X2748Y627D02*
X2755Y627D01*
X1Y626D02*
X8Y626D01*
X2748Y626D02*
X2755Y626D01*
X1Y625D02*
X8Y625D01*
X2748Y625D02*
X2755Y625D01*
X1Y624D02*
X8Y624D01*
X2748Y624D02*
X2755Y624D01*
X1Y623D02*
X8Y623D01*
X2748Y623D02*
X2755Y623D01*
X1Y622D02*
X8Y622D01*
X2748Y622D02*
X2755Y622D01*
X1Y621D02*
X8Y621D01*
X2748Y621D02*
X2755Y621D01*
X1Y620D02*
X8Y620D01*
X2748Y620D02*
X2755Y620D01*
X1Y619D02*
X8Y619D01*
X2748Y619D02*
X2755Y619D01*
X1Y618D02*
X8Y618D01*
X2748Y618D02*
X2755Y618D01*
X1Y617D02*
X8Y617D01*
X2748Y617D02*
X2755Y617D01*
X1Y616D02*
X8Y616D01*
X2748Y616D02*
X2755Y616D01*
X1Y615D02*
X8Y615D01*
X2748Y615D02*
X2755Y615D01*
X1Y614D02*
X8Y614D01*
X2748Y614D02*
X2755Y614D01*
X1Y613D02*
X8Y613D01*
X2748Y613D02*
X2755Y613D01*
X1Y612D02*
X8Y612D01*
X2748Y612D02*
X2755Y612D01*
X1Y611D02*
X8Y611D01*
X2748Y611D02*
X2755Y611D01*
X1Y610D02*
X8Y610D01*
X2748Y610D02*
X2755Y610D01*
X1Y609D02*
X8Y609D01*
X2748Y609D02*
X2755Y609D01*
X1Y608D02*
X8Y608D01*
X2748Y608D02*
X2755Y608D01*
X1Y607D02*
X8Y607D01*
X2748Y607D02*
X2755Y607D01*
X1Y606D02*
X8Y606D01*
X2748Y606D02*
X2755Y606D01*
X1Y605D02*
X8Y605D01*
X2748Y605D02*
X2755Y605D01*
X1Y604D02*
X8Y604D01*
X2748Y604D02*
X2755Y604D01*
X1Y603D02*
X8Y603D01*
X2748Y603D02*
X2755Y603D01*
X1Y602D02*
X8Y602D01*
X2748Y602D02*
X2755Y602D01*
X1Y601D02*
X8Y601D01*
X2748Y601D02*
X2755Y601D01*
X1Y600D02*
X8Y600D01*
X2748Y600D02*
X2755Y600D01*
X1Y599D02*
X8Y599D01*
X2748Y599D02*
X2755Y599D01*
X1Y598D02*
X8Y598D01*
X2748Y598D02*
X2755Y598D01*
X1Y597D02*
X8Y597D01*
X2748Y597D02*
X2755Y597D01*
X1Y596D02*
X8Y596D01*
X2748Y596D02*
X2755Y596D01*
X1Y595D02*
X8Y595D01*
X2748Y595D02*
X2755Y595D01*
X1Y594D02*
X8Y594D01*
X2748Y594D02*
X2755Y594D01*
X1Y593D02*
X8Y593D01*
X2748Y593D02*
X2755Y593D01*
X1Y592D02*
X8Y592D01*
X2748Y592D02*
X2755Y592D01*
X1Y591D02*
X8Y591D01*
X2748Y591D02*
X2755Y591D01*
X1Y590D02*
X8Y590D01*
X2748Y590D02*
X2755Y590D01*
X1Y589D02*
X8Y589D01*
X2748Y589D02*
X2755Y589D01*
X1Y588D02*
X8Y588D01*
X2748Y588D02*
X2755Y588D01*
X1Y587D02*
X8Y587D01*
X2748Y587D02*
X2755Y587D01*
X1Y586D02*
X8Y586D01*
X2748Y586D02*
X2755Y586D01*
X1Y585D02*
X8Y585D01*
X2748Y585D02*
X2755Y585D01*
X1Y584D02*
X8Y584D01*
X2748Y584D02*
X2755Y584D01*
X1Y583D02*
X8Y583D01*
X2748Y583D02*
X2755Y583D01*
X1Y582D02*
X8Y582D01*
X2748Y582D02*
X2755Y582D01*
X1Y581D02*
X8Y581D01*
X2748Y581D02*
X2755Y581D01*
X1Y580D02*
X8Y580D01*
X2748Y580D02*
X2755Y580D01*
X1Y579D02*
X8Y579D01*
X2748Y579D02*
X2755Y579D01*
X1Y578D02*
X8Y578D01*
X2748Y578D02*
X2755Y578D01*
X1Y577D02*
X8Y577D01*
X2748Y577D02*
X2755Y577D01*
X1Y576D02*
X8Y576D01*
X2748Y576D02*
X2755Y576D01*
X1Y575D02*
X8Y575D01*
X2748Y575D02*
X2755Y575D01*
X1Y574D02*
X8Y574D01*
X2748Y574D02*
X2755Y574D01*
X1Y573D02*
X8Y573D01*
X2748Y573D02*
X2755Y573D01*
X1Y572D02*
X8Y572D01*
X2748Y572D02*
X2755Y572D01*
X1Y571D02*
X8Y571D01*
X2748Y571D02*
X2755Y571D01*
X1Y570D02*
X8Y570D01*
X2748Y570D02*
X2755Y570D01*
X1Y569D02*
X8Y569D01*
X2748Y569D02*
X2755Y569D01*
X1Y568D02*
X8Y568D01*
X2748Y568D02*
X2755Y568D01*
X1Y567D02*
X8Y567D01*
X2748Y567D02*
X2755Y567D01*
X1Y566D02*
X8Y566D01*
X2748Y566D02*
X2755Y566D01*
X1Y565D02*
X8Y565D01*
X2748Y565D02*
X2755Y565D01*
X1Y564D02*
X8Y564D01*
X2748Y564D02*
X2755Y564D01*
X1Y563D02*
X8Y563D01*
X2748Y563D02*
X2755Y563D01*
X1Y562D02*
X8Y562D01*
X2748Y562D02*
X2755Y562D01*
X1Y561D02*
X8Y561D01*
X2748Y561D02*
X2755Y561D01*
X1Y560D02*
X8Y560D01*
X2748Y560D02*
X2755Y560D01*
X1Y559D02*
X8Y559D01*
X2748Y559D02*
X2755Y559D01*
X1Y558D02*
X8Y558D01*
X2748Y558D02*
X2755Y558D01*
X1Y557D02*
X8Y557D01*
X2748Y557D02*
X2755Y557D01*
X1Y556D02*
X8Y556D01*
X2748Y556D02*
X2755Y556D01*
X1Y555D02*
X8Y555D01*
X2748Y555D02*
X2755Y555D01*
X1Y554D02*
X8Y554D01*
X2748Y554D02*
X2755Y554D01*
X1Y553D02*
X8Y553D01*
X2748Y553D02*
X2755Y553D01*
X1Y552D02*
X8Y552D01*
X2748Y552D02*
X2755Y552D01*
X1Y551D02*
X8Y551D01*
X2748Y551D02*
X2755Y551D01*
X1Y550D02*
X8Y550D01*
X2748Y550D02*
X2755Y550D01*
X1Y549D02*
X8Y549D01*
X2748Y549D02*
X2755Y549D01*
X1Y548D02*
X8Y548D01*
X2748Y548D02*
X2755Y548D01*
X1Y547D02*
X8Y547D01*
X2748Y547D02*
X2755Y547D01*
X1Y546D02*
X8Y546D01*
X2748Y546D02*
X2755Y546D01*
X1Y545D02*
X8Y545D01*
X2748Y545D02*
X2755Y545D01*
X1Y544D02*
X8Y544D01*
X2748Y544D02*
X2755Y544D01*
X1Y543D02*
X8Y543D01*
X2748Y543D02*
X2755Y543D01*
X1Y542D02*
X8Y542D01*
X2748Y542D02*
X2755Y542D01*
X1Y541D02*
X8Y541D01*
X2748Y541D02*
X2755Y541D01*
X1Y540D02*
X8Y540D01*
X2748Y540D02*
X2755Y540D01*
X1Y539D02*
X8Y539D01*
X2748Y539D02*
X2755Y539D01*
X1Y538D02*
X8Y538D01*
X2748Y538D02*
X2755Y538D01*
X1Y537D02*
X8Y537D01*
X2748Y537D02*
X2755Y537D01*
X1Y536D02*
X8Y536D01*
X2748Y536D02*
X2755Y536D01*
X1Y535D02*
X8Y535D01*
X2748Y535D02*
X2755Y535D01*
X1Y534D02*
X8Y534D01*
X2748Y534D02*
X2755Y534D01*
X1Y533D02*
X8Y533D01*
X2748Y533D02*
X2755Y533D01*
X1Y532D02*
X8Y532D01*
X2748Y532D02*
X2755Y532D01*
X1Y531D02*
X8Y531D01*
X2748Y531D02*
X2755Y531D01*
X1Y530D02*
X8Y530D01*
X2748Y530D02*
X2755Y530D01*
X1Y529D02*
X8Y529D01*
X2748Y529D02*
X2755Y529D01*
X1Y528D02*
X8Y528D01*
X2748Y528D02*
X2755Y528D01*
X1Y527D02*
X8Y527D01*
X2748Y527D02*
X2755Y527D01*
X1Y526D02*
X8Y526D01*
X2748Y526D02*
X2755Y526D01*
X1Y525D02*
X8Y525D01*
X2748Y525D02*
X2755Y525D01*
X1Y524D02*
X8Y524D01*
X2748Y524D02*
X2755Y524D01*
X1Y523D02*
X8Y523D01*
X2748Y523D02*
X2755Y523D01*
X1Y522D02*
X8Y522D01*
X2748Y522D02*
X2755Y522D01*
X1Y521D02*
X8Y521D01*
X2748Y521D02*
X2755Y521D01*
X1Y520D02*
X8Y520D01*
X2748Y520D02*
X2755Y520D01*
X1Y519D02*
X8Y519D01*
X2748Y519D02*
X2755Y519D01*
X1Y518D02*
X8Y518D01*
X2748Y518D02*
X2755Y518D01*
X1Y517D02*
X8Y517D01*
X2748Y517D02*
X2755Y517D01*
X1Y516D02*
X8Y516D01*
X2748Y516D02*
X2755Y516D01*
X1Y515D02*
X8Y515D01*
X2748Y515D02*
X2755Y515D01*
X1Y514D02*
X8Y514D01*
X2748Y514D02*
X2755Y514D01*
X1Y513D02*
X8Y513D01*
X2748Y513D02*
X2755Y513D01*
X1Y512D02*
X8Y512D01*
X2748Y512D02*
X2755Y512D01*
X1Y511D02*
X8Y511D01*
X2748Y511D02*
X2755Y511D01*
X1Y510D02*
X8Y510D01*
X2748Y510D02*
X2755Y510D01*
X1Y509D02*
X8Y509D01*
X2748Y509D02*
X2755Y509D01*
X1Y508D02*
X8Y508D01*
X2748Y508D02*
X2755Y508D01*
X1Y507D02*
X8Y507D01*
X2748Y507D02*
X2755Y507D01*
X1Y506D02*
X8Y506D01*
X2748Y506D02*
X2755Y506D01*
X1Y505D02*
X8Y505D01*
X2748Y505D02*
X2755Y505D01*
X1Y504D02*
X8Y504D01*
X2748Y504D02*
X2755Y504D01*
X1Y503D02*
X8Y503D01*
X2748Y503D02*
X2755Y503D01*
X1Y502D02*
X8Y502D01*
X2748Y502D02*
X2755Y502D01*
X1Y501D02*
X8Y501D01*
X2748Y501D02*
X2755Y501D01*
X1Y500D02*
X8Y500D01*
X2748Y500D02*
X2755Y500D01*
X1Y499D02*
X8Y499D01*
X2748Y499D02*
X2755Y499D01*
X1Y498D02*
X8Y498D01*
X2748Y498D02*
X2755Y498D01*
X1Y497D02*
X8Y497D01*
X2748Y497D02*
X2755Y497D01*
X1Y496D02*
X8Y496D01*
X2748Y496D02*
X2755Y496D01*
X1Y495D02*
X8Y495D01*
X2748Y495D02*
X2755Y495D01*
X1Y494D02*
X8Y494D01*
X2748Y494D02*
X2755Y494D01*
X1Y493D02*
X8Y493D01*
X2748Y493D02*
X2755Y493D01*
X1Y492D02*
X8Y492D01*
X2748Y492D02*
X2755Y492D01*
X1Y491D02*
X8Y491D01*
X2748Y491D02*
X2755Y491D01*
X1Y490D02*
X8Y490D01*
X2748Y490D02*
X2755Y490D01*
X1Y489D02*
X8Y489D01*
X2748Y489D02*
X2755Y489D01*
X1Y488D02*
X8Y488D01*
X2748Y488D02*
X2755Y488D01*
X1Y487D02*
X8Y487D01*
X2748Y487D02*
X2755Y487D01*
X1Y486D02*
X8Y486D01*
X2748Y486D02*
X2755Y486D01*
X1Y485D02*
X8Y485D01*
X2748Y485D02*
X2755Y485D01*
X1Y484D02*
X8Y484D01*
X2748Y484D02*
X2755Y484D01*
X1Y483D02*
X8Y483D01*
X2748Y483D02*
X2755Y483D01*
X1Y482D02*
X8Y482D01*
X2748Y482D02*
X2755Y482D01*
X1Y481D02*
X8Y481D01*
X2748Y481D02*
X2755Y481D01*
X1Y480D02*
X8Y480D01*
X2748Y480D02*
X2755Y480D01*
X1Y479D02*
X8Y479D01*
X2748Y479D02*
X2755Y479D01*
X1Y478D02*
X8Y478D01*
X2748Y478D02*
X2755Y478D01*
X1Y477D02*
X8Y477D01*
X2748Y477D02*
X2755Y477D01*
X1Y476D02*
X8Y476D01*
X2748Y476D02*
X2755Y476D01*
X1Y475D02*
X8Y475D01*
X2748Y475D02*
X2755Y475D01*
X1Y474D02*
X8Y474D01*
X2748Y474D02*
X2755Y474D01*
X1Y473D02*
X8Y473D01*
X2748Y473D02*
X2755Y473D01*
X1Y472D02*
X8Y472D01*
X2748Y472D02*
X2755Y472D01*
X1Y471D02*
X8Y471D01*
X2748Y471D02*
X2755Y471D01*
X1Y470D02*
X8Y470D01*
X2748Y470D02*
X2755Y470D01*
X1Y469D02*
X8Y469D01*
X2748Y469D02*
X2755Y469D01*
X1Y468D02*
X8Y468D01*
X2748Y468D02*
X2755Y468D01*
X1Y467D02*
X8Y467D01*
X2748Y467D02*
X2755Y467D01*
X1Y466D02*
X8Y466D01*
X2748Y466D02*
X2755Y466D01*
X1Y465D02*
X8Y465D01*
X2748Y465D02*
X2755Y465D01*
X1Y464D02*
X8Y464D01*
X2748Y464D02*
X2755Y464D01*
X1Y463D02*
X8Y463D01*
X2748Y463D02*
X2755Y463D01*
X1Y462D02*
X8Y462D01*
X2748Y462D02*
X2755Y462D01*
X1Y461D02*
X8Y461D01*
X2748Y461D02*
X2755Y461D01*
X1Y460D02*
X8Y460D01*
X2748Y460D02*
X2755Y460D01*
X1Y459D02*
X8Y459D01*
X2748Y459D02*
X2755Y459D01*
X1Y458D02*
X8Y458D01*
X2748Y458D02*
X2755Y458D01*
X1Y457D02*
X8Y457D01*
X2748Y457D02*
X2755Y457D01*
X1Y456D02*
X8Y456D01*
X2748Y456D02*
X2755Y456D01*
X1Y455D02*
X8Y455D01*
X2748Y455D02*
X2755Y455D01*
X1Y454D02*
X8Y454D01*
X2748Y454D02*
X2755Y454D01*
X1Y453D02*
X8Y453D01*
X2748Y453D02*
X2755Y453D01*
X1Y452D02*
X8Y452D01*
X2748Y452D02*
X2755Y452D01*
X1Y451D02*
X8Y451D01*
X2748Y451D02*
X2755Y451D01*
X1Y450D02*
X8Y450D01*
X2748Y450D02*
X2755Y450D01*
X1Y449D02*
X8Y449D01*
X2748Y449D02*
X2755Y449D01*
X1Y448D02*
X8Y448D01*
X2748Y448D02*
X2755Y448D01*
X1Y447D02*
X8Y447D01*
X2748Y447D02*
X2755Y447D01*
X1Y446D02*
X8Y446D01*
X2748Y446D02*
X2755Y446D01*
X1Y445D02*
X8Y445D01*
X2748Y445D02*
X2755Y445D01*
X1Y444D02*
X8Y444D01*
X2748Y444D02*
X2755Y444D01*
X1Y443D02*
X8Y443D01*
X2748Y443D02*
X2755Y443D01*
X1Y442D02*
X8Y442D01*
X2748Y442D02*
X2755Y442D01*
X1Y441D02*
X8Y441D01*
X2748Y441D02*
X2755Y441D01*
X1Y440D02*
X8Y440D01*
X2748Y440D02*
X2755Y440D01*
X1Y439D02*
X8Y439D01*
X2748Y439D02*
X2755Y439D01*
X1Y438D02*
X8Y438D01*
X2748Y438D02*
X2755Y438D01*
X1Y437D02*
X8Y437D01*
X2748Y437D02*
X2755Y437D01*
X1Y436D02*
X8Y436D01*
X2748Y436D02*
X2755Y436D01*
X1Y435D02*
X8Y435D01*
X2748Y435D02*
X2755Y435D01*
X1Y434D02*
X8Y434D01*
X2748Y434D02*
X2755Y434D01*
X1Y433D02*
X8Y433D01*
X2748Y433D02*
X2755Y433D01*
X1Y432D02*
X8Y432D01*
X2748Y432D02*
X2755Y432D01*
X1Y431D02*
X8Y431D01*
X2748Y431D02*
X2755Y431D01*
X1Y430D02*
X8Y430D01*
X2748Y430D02*
X2755Y430D01*
X1Y429D02*
X8Y429D01*
X2748Y429D02*
X2755Y429D01*
X1Y428D02*
X8Y428D01*
X2748Y428D02*
X2755Y428D01*
X1Y427D02*
X8Y427D01*
X2748Y427D02*
X2755Y427D01*
X1Y426D02*
X8Y426D01*
X2748Y426D02*
X2755Y426D01*
X1Y425D02*
X8Y425D01*
X2748Y425D02*
X2755Y425D01*
X1Y424D02*
X8Y424D01*
X2748Y424D02*
X2755Y424D01*
X1Y423D02*
X8Y423D01*
X2748Y423D02*
X2755Y423D01*
X1Y422D02*
X8Y422D01*
X2748Y422D02*
X2755Y422D01*
X1Y421D02*
X8Y421D01*
X2748Y421D02*
X2755Y421D01*
X1Y420D02*
X8Y420D01*
X2748Y420D02*
X2755Y420D01*
X1Y419D02*
X8Y419D01*
X2748Y419D02*
X2755Y419D01*
X1Y418D02*
X8Y418D01*
X2748Y418D02*
X2755Y418D01*
X1Y417D02*
X8Y417D01*
X2748Y417D02*
X2755Y417D01*
X1Y416D02*
X8Y416D01*
X2748Y416D02*
X2755Y416D01*
X1Y415D02*
X8Y415D01*
X2748Y415D02*
X2755Y415D01*
X1Y414D02*
X8Y414D01*
X2748Y414D02*
X2755Y414D01*
X1Y413D02*
X8Y413D01*
X2748Y413D02*
X2755Y413D01*
X1Y412D02*
X8Y412D01*
X2748Y412D02*
X2755Y412D01*
X1Y411D02*
X8Y411D01*
X2748Y411D02*
X2755Y411D01*
X1Y410D02*
X8Y410D01*
X2748Y410D02*
X2755Y410D01*
X1Y409D02*
X8Y409D01*
X2748Y409D02*
X2755Y409D01*
X1Y408D02*
X8Y408D01*
X2748Y408D02*
X2755Y408D01*
X1Y407D02*
X8Y407D01*
X2748Y407D02*
X2755Y407D01*
X1Y406D02*
X8Y406D01*
X2748Y406D02*
X2755Y406D01*
X1Y405D02*
X8Y405D01*
X2748Y405D02*
X2755Y405D01*
X1Y404D02*
X8Y404D01*
X2748Y404D02*
X2755Y404D01*
X1Y403D02*
X8Y403D01*
X2748Y403D02*
X2755Y403D01*
X1Y402D02*
X8Y402D01*
X2748Y402D02*
X2755Y402D01*
X1Y401D02*
X8Y401D01*
X2748Y401D02*
X2755Y401D01*
X1Y400D02*
X8Y400D01*
X2748Y400D02*
X2755Y400D01*
X1Y399D02*
X8Y399D01*
X2748Y399D02*
X2755Y399D01*
X1Y398D02*
X8Y398D01*
X2748Y398D02*
X2755Y398D01*
X1Y397D02*
X8Y397D01*
X2748Y397D02*
X2755Y397D01*
X1Y396D02*
X8Y396D01*
X2748Y396D02*
X2755Y396D01*
X1Y395D02*
X8Y395D01*
X2748Y395D02*
X2755Y395D01*
X1Y394D02*
X8Y394D01*
X2748Y394D02*
X2755Y394D01*
X1Y393D02*
X8Y393D01*
X2748Y393D02*
X2755Y393D01*
X1Y392D02*
X8Y392D01*
X2748Y392D02*
X2755Y392D01*
X1Y391D02*
X8Y391D01*
X2748Y391D02*
X2755Y391D01*
X1Y390D02*
X8Y390D01*
X2748Y390D02*
X2755Y390D01*
X1Y389D02*
X8Y389D01*
X2748Y389D02*
X2755Y389D01*
X1Y388D02*
X8Y388D01*
X2748Y388D02*
X2755Y388D01*
X1Y387D02*
X8Y387D01*
X2748Y387D02*
X2755Y387D01*
X1Y386D02*
X8Y386D01*
X2748Y386D02*
X2755Y386D01*
X1Y385D02*
X8Y385D01*
X2748Y385D02*
X2755Y385D01*
X1Y384D02*
X8Y384D01*
X2748Y384D02*
X2755Y384D01*
X1Y383D02*
X8Y383D01*
X2748Y383D02*
X2755Y383D01*
X1Y382D02*
X8Y382D01*
X2748Y382D02*
X2755Y382D01*
X1Y381D02*
X8Y381D01*
X2748Y381D02*
X2755Y381D01*
X1Y380D02*
X8Y380D01*
X2748Y380D02*
X2755Y380D01*
X1Y379D02*
X8Y379D01*
X2748Y379D02*
X2755Y379D01*
X1Y378D02*
X8Y378D01*
X2748Y378D02*
X2755Y378D01*
X1Y377D02*
X8Y377D01*
X2748Y377D02*
X2755Y377D01*
X1Y376D02*
X8Y376D01*
X2748Y376D02*
X2755Y376D01*
X1Y375D02*
X8Y375D01*
X2748Y375D02*
X2755Y375D01*
X1Y374D02*
X8Y374D01*
X2748Y374D02*
X2755Y374D01*
X1Y373D02*
X8Y373D01*
X2748Y373D02*
X2755Y373D01*
X1Y372D02*
X8Y372D01*
X2748Y372D02*
X2755Y372D01*
X1Y371D02*
X8Y371D01*
X2748Y371D02*
X2755Y371D01*
X1Y370D02*
X8Y370D01*
X2748Y370D02*
X2755Y370D01*
X1Y369D02*
X8Y369D01*
X2748Y369D02*
X2755Y369D01*
X1Y368D02*
X8Y368D01*
X2748Y368D02*
X2755Y368D01*
X1Y367D02*
X8Y367D01*
X2748Y367D02*
X2755Y367D01*
X1Y366D02*
X8Y366D01*
X2748Y366D02*
X2755Y366D01*
X1Y365D02*
X8Y365D01*
X2748Y365D02*
X2755Y365D01*
X1Y364D02*
X8Y364D01*
X2748Y364D02*
X2755Y364D01*
X1Y363D02*
X8Y363D01*
X2748Y363D02*
X2755Y363D01*
X1Y362D02*
X8Y362D01*
X2748Y362D02*
X2755Y362D01*
X1Y361D02*
X8Y361D01*
X2748Y361D02*
X2755Y361D01*
X1Y360D02*
X8Y360D01*
X2748Y360D02*
X2755Y360D01*
X1Y359D02*
X8Y359D01*
X2748Y359D02*
X2755Y359D01*
X1Y358D02*
X8Y358D01*
X2748Y358D02*
X2755Y358D01*
X1Y357D02*
X8Y357D01*
X2748Y357D02*
X2755Y357D01*
X1Y356D02*
X8Y356D01*
X2748Y356D02*
X2755Y356D01*
X1Y355D02*
X8Y355D01*
X2748Y355D02*
X2755Y355D01*
X1Y354D02*
X8Y354D01*
X2748Y354D02*
X2755Y354D01*
X1Y353D02*
X8Y353D01*
X2748Y353D02*
X2755Y353D01*
X1Y352D02*
X8Y352D01*
X2748Y352D02*
X2755Y352D01*
X1Y351D02*
X8Y351D01*
X2748Y351D02*
X2755Y351D01*
X1Y350D02*
X8Y350D01*
X2748Y350D02*
X2755Y350D01*
X1Y349D02*
X8Y349D01*
X2748Y349D02*
X2755Y349D01*
X1Y348D02*
X8Y348D01*
X2748Y348D02*
X2755Y348D01*
X1Y347D02*
X8Y347D01*
X2748Y347D02*
X2755Y347D01*
X1Y346D02*
X8Y346D01*
X2748Y346D02*
X2755Y346D01*
X1Y345D02*
X8Y345D01*
X2748Y345D02*
X2755Y345D01*
X1Y344D02*
X8Y344D01*
X2748Y344D02*
X2755Y344D01*
X1Y343D02*
X8Y343D01*
X2748Y343D02*
X2755Y343D01*
X1Y342D02*
X8Y342D01*
X2748Y342D02*
X2755Y342D01*
X1Y341D02*
X8Y341D01*
X2748Y341D02*
X2755Y341D01*
X1Y340D02*
X8Y340D01*
X2748Y340D02*
X2755Y340D01*
X1Y339D02*
X8Y339D01*
X2748Y339D02*
X2755Y339D01*
X1Y338D02*
X8Y338D01*
X2748Y338D02*
X2755Y338D01*
X1Y337D02*
X8Y337D01*
X2748Y337D02*
X2755Y337D01*
X1Y336D02*
X8Y336D01*
X2748Y336D02*
X2755Y336D01*
X1Y335D02*
X8Y335D01*
X2748Y335D02*
X2755Y335D01*
X1Y334D02*
X8Y334D01*
X2748Y334D02*
X2755Y334D01*
X1Y333D02*
X8Y333D01*
X2748Y333D02*
X2755Y333D01*
X1Y332D02*
X8Y332D01*
X2748Y332D02*
X2755Y332D01*
X1Y331D02*
X8Y331D01*
X2748Y331D02*
X2755Y331D01*
X1Y330D02*
X8Y330D01*
X2748Y330D02*
X2755Y330D01*
X1Y329D02*
X8Y329D01*
X2748Y329D02*
X2755Y329D01*
X1Y328D02*
X8Y328D01*
X2748Y328D02*
X2755Y328D01*
X1Y327D02*
X8Y327D01*
X2748Y327D02*
X2755Y327D01*
X1Y326D02*
X8Y326D01*
X2748Y326D02*
X2755Y326D01*
X1Y325D02*
X8Y325D01*
X2748Y325D02*
X2755Y325D01*
X1Y324D02*
X8Y324D01*
X2748Y324D02*
X2755Y324D01*
X1Y323D02*
X8Y323D01*
X2748Y323D02*
X2755Y323D01*
X1Y322D02*
X8Y322D01*
X2748Y322D02*
X2755Y322D01*
X1Y321D02*
X8Y321D01*
X2748Y321D02*
X2755Y321D01*
X1Y320D02*
X8Y320D01*
X2748Y320D02*
X2755Y320D01*
X1Y319D02*
X8Y319D01*
X2748Y319D02*
X2755Y319D01*
X1Y318D02*
X8Y318D01*
X2748Y318D02*
X2755Y318D01*
X1Y317D02*
X8Y317D01*
X2748Y317D02*
X2755Y317D01*
X1Y316D02*
X8Y316D01*
X2748Y316D02*
X2755Y316D01*
X1Y315D02*
X8Y315D01*
X2748Y315D02*
X2755Y315D01*
X1Y314D02*
X8Y314D01*
X2748Y314D02*
X2755Y314D01*
X1Y313D02*
X8Y313D01*
X2748Y313D02*
X2755Y313D01*
X1Y312D02*
X8Y312D01*
X2748Y312D02*
X2755Y312D01*
X1Y311D02*
X8Y311D01*
X2748Y311D02*
X2755Y311D01*
X1Y310D02*
X8Y310D01*
X2748Y310D02*
X2755Y310D01*
X1Y309D02*
X8Y309D01*
X2748Y309D02*
X2755Y309D01*
X1Y308D02*
X8Y308D01*
X2748Y308D02*
X2755Y308D01*
X1Y307D02*
X8Y307D01*
X2748Y307D02*
X2755Y307D01*
X1Y306D02*
X8Y306D01*
X2748Y306D02*
X2755Y306D01*
X1Y305D02*
X8Y305D01*
X2748Y305D02*
X2755Y305D01*
X1Y304D02*
X8Y304D01*
X2748Y304D02*
X2755Y304D01*
X1Y303D02*
X8Y303D01*
X2748Y303D02*
X2755Y303D01*
X1Y302D02*
X8Y302D01*
X2748Y302D02*
X2755Y302D01*
X1Y301D02*
X8Y301D01*
X2748Y301D02*
X2755Y301D01*
X1Y300D02*
X8Y300D01*
X2748Y300D02*
X2755Y300D01*
X1Y299D02*
X8Y299D01*
X2748Y299D02*
X2755Y299D01*
X1Y298D02*
X8Y298D01*
X2748Y298D02*
X2755Y298D01*
X1Y297D02*
X8Y297D01*
X2748Y297D02*
X2755Y297D01*
X1Y296D02*
X8Y296D01*
X2748Y296D02*
X2755Y296D01*
X1Y295D02*
X8Y295D01*
X2748Y295D02*
X2755Y295D01*
X1Y294D02*
X8Y294D01*
X2748Y294D02*
X2755Y294D01*
X1Y293D02*
X8Y293D01*
X2748Y293D02*
X2755Y293D01*
X1Y292D02*
X8Y292D01*
X2748Y292D02*
X2755Y292D01*
X1Y291D02*
X8Y291D01*
X2748Y291D02*
X2755Y291D01*
X1Y290D02*
X8Y290D01*
X2748Y290D02*
X2755Y290D01*
X1Y289D02*
X8Y289D01*
X2748Y289D02*
X2755Y289D01*
X1Y288D02*
X8Y288D01*
X2748Y288D02*
X2755Y288D01*
X1Y287D02*
X8Y287D01*
X2748Y287D02*
X2755Y287D01*
X1Y286D02*
X8Y286D01*
X2748Y286D02*
X2755Y286D01*
X1Y285D02*
X8Y285D01*
X2748Y285D02*
X2755Y285D01*
X1Y284D02*
X8Y284D01*
X2748Y284D02*
X2755Y284D01*
X1Y283D02*
X8Y283D01*
X2748Y283D02*
X2755Y283D01*
X1Y282D02*
X8Y282D01*
X2748Y282D02*
X2755Y282D01*
X1Y281D02*
X8Y281D01*
X2748Y281D02*
X2755Y281D01*
X1Y280D02*
X8Y280D01*
X2748Y280D02*
X2755Y280D01*
X1Y279D02*
X8Y279D01*
X2748Y279D02*
X2755Y279D01*
X1Y278D02*
X8Y278D01*
X2748Y278D02*
X2755Y278D01*
X1Y277D02*
X8Y277D01*
X2748Y277D02*
X2755Y277D01*
X1Y276D02*
X8Y276D01*
X2748Y276D02*
X2755Y276D01*
X1Y275D02*
X8Y275D01*
X2748Y275D02*
X2755Y275D01*
X1Y274D02*
X8Y274D01*
X2748Y274D02*
X2755Y274D01*
X1Y273D02*
X8Y273D01*
X2748Y273D02*
X2755Y273D01*
X1Y272D02*
X8Y272D01*
X2748Y272D02*
X2755Y272D01*
X1Y271D02*
X8Y271D01*
X2748Y271D02*
X2755Y271D01*
X1Y270D02*
X8Y270D01*
X2748Y270D02*
X2755Y270D01*
X1Y269D02*
X8Y269D01*
X2748Y269D02*
X2755Y269D01*
X1Y268D02*
X8Y268D01*
X2748Y268D02*
X2755Y268D01*
X1Y267D02*
X8Y267D01*
X2748Y267D02*
X2755Y267D01*
X1Y266D02*
X8Y266D01*
X2748Y266D02*
X2755Y266D01*
X1Y265D02*
X8Y265D01*
X2748Y265D02*
X2755Y265D01*
X1Y264D02*
X8Y264D01*
X2748Y264D02*
X2755Y264D01*
X1Y263D02*
X8Y263D01*
X2748Y263D02*
X2755Y263D01*
X1Y262D02*
X8Y262D01*
X2748Y262D02*
X2755Y262D01*
X1Y261D02*
X8Y261D01*
X2748Y261D02*
X2755Y261D01*
X1Y260D02*
X8Y260D01*
X2748Y260D02*
X2755Y260D01*
X1Y259D02*
X8Y259D01*
X2748Y259D02*
X2755Y259D01*
X1Y258D02*
X8Y258D01*
X2748Y258D02*
X2755Y258D01*
X1Y257D02*
X8Y257D01*
X2748Y257D02*
X2755Y257D01*
X1Y256D02*
X8Y256D01*
X2748Y256D02*
X2755Y256D01*
X1Y255D02*
X8Y255D01*
X2748Y255D02*
X2755Y255D01*
X1Y254D02*
X8Y254D01*
X2748Y254D02*
X2755Y254D01*
X1Y253D02*
X8Y253D01*
X2748Y253D02*
X2755Y253D01*
X1Y252D02*
X8Y252D01*
X2748Y252D02*
X2755Y252D01*
X1Y251D02*
X8Y251D01*
X2748Y251D02*
X2755Y251D01*
X1Y250D02*
X8Y250D01*
X2748Y250D02*
X2755Y250D01*
X1Y249D02*
X8Y249D01*
X2748Y249D02*
X2755Y249D01*
X1Y248D02*
X8Y248D01*
X2748Y248D02*
X2755Y248D01*
X1Y247D02*
X8Y247D01*
X2748Y247D02*
X2755Y247D01*
X1Y246D02*
X8Y246D01*
X2748Y246D02*
X2755Y246D01*
X1Y245D02*
X8Y245D01*
X2748Y245D02*
X2755Y245D01*
X1Y244D02*
X8Y244D01*
X2748Y244D02*
X2755Y244D01*
X1Y243D02*
X8Y243D01*
X2748Y243D02*
X2755Y243D01*
X1Y242D02*
X8Y242D01*
X2748Y242D02*
X2755Y242D01*
X1Y241D02*
X8Y241D01*
X2748Y241D02*
X2755Y241D01*
X1Y240D02*
X8Y240D01*
X2748Y240D02*
X2755Y240D01*
X1Y239D02*
X8Y239D01*
X2748Y239D02*
X2755Y239D01*
X1Y238D02*
X8Y238D01*
X2748Y238D02*
X2755Y238D01*
X1Y237D02*
X8Y237D01*
X2748Y237D02*
X2755Y237D01*
X1Y236D02*
X8Y236D01*
X2748Y236D02*
X2755Y236D01*
X1Y235D02*
X8Y235D01*
X2748Y235D02*
X2755Y235D01*
X1Y234D02*
X8Y234D01*
X2748Y234D02*
X2755Y234D01*
X1Y233D02*
X8Y233D01*
X2748Y233D02*
X2755Y233D01*
X1Y232D02*
X8Y232D01*
X2748Y232D02*
X2755Y232D01*
X1Y231D02*
X8Y231D01*
X2748Y231D02*
X2755Y231D01*
X1Y230D02*
X8Y230D01*
X2748Y230D02*
X2755Y230D01*
X1Y229D02*
X8Y229D01*
X2748Y229D02*
X2755Y229D01*
X1Y228D02*
X8Y228D01*
X2748Y228D02*
X2755Y228D01*
X1Y227D02*
X8Y227D01*
X2748Y227D02*
X2755Y227D01*
X1Y226D02*
X8Y226D01*
X2748Y226D02*
X2755Y226D01*
X1Y225D02*
X8Y225D01*
X2748Y225D02*
X2755Y225D01*
X1Y224D02*
X8Y224D01*
X2748Y224D02*
X2755Y224D01*
X1Y223D02*
X8Y223D01*
X2748Y223D02*
X2755Y223D01*
X1Y222D02*
X8Y222D01*
X2748Y222D02*
X2755Y222D01*
X1Y221D02*
X8Y221D01*
X2748Y221D02*
X2755Y221D01*
X1Y220D02*
X8Y220D01*
X2748Y220D02*
X2755Y220D01*
X1Y219D02*
X8Y219D01*
X2748Y219D02*
X2755Y219D01*
X1Y218D02*
X8Y218D01*
X2748Y218D02*
X2755Y218D01*
X1Y217D02*
X8Y217D01*
X2748Y217D02*
X2755Y217D01*
X1Y216D02*
X8Y216D01*
X2748Y216D02*
X2755Y216D01*
X1Y215D02*
X8Y215D01*
X2748Y215D02*
X2755Y215D01*
X1Y214D02*
X8Y214D01*
X2748Y214D02*
X2755Y214D01*
X1Y213D02*
X8Y213D01*
X2748Y213D02*
X2755Y213D01*
X1Y212D02*
X8Y212D01*
X2748Y212D02*
X2755Y212D01*
X1Y211D02*
X8Y211D01*
X2748Y211D02*
X2755Y211D01*
X1Y210D02*
X8Y210D01*
X2748Y210D02*
X2755Y210D01*
X1Y209D02*
X8Y209D01*
X2748Y209D02*
X2755Y209D01*
X1Y208D02*
X8Y208D01*
X2748Y208D02*
X2755Y208D01*
X1Y207D02*
X8Y207D01*
X2748Y207D02*
X2755Y207D01*
X1Y206D02*
X8Y206D01*
X2748Y206D02*
X2755Y206D01*
X1Y205D02*
X8Y205D01*
X2748Y205D02*
X2755Y205D01*
X1Y204D02*
X8Y204D01*
X2748Y204D02*
X2755Y204D01*
X1Y203D02*
X8Y203D01*
X2748Y203D02*
X2755Y203D01*
X1Y202D02*
X8Y202D01*
X2748Y202D02*
X2755Y202D01*
X1Y201D02*
X8Y201D01*
X2748Y201D02*
X2755Y201D01*
X1Y200D02*
X8Y200D01*
X2748Y200D02*
X2755Y200D01*
X1Y199D02*
X8Y199D01*
X2748Y199D02*
X2755Y199D01*
X1Y198D02*
X8Y198D01*
X2748Y198D02*
X2755Y198D01*
X1Y197D02*
X8Y197D01*
X2748Y197D02*
X2755Y197D01*
X1Y196D02*
X8Y196D01*
X2748Y196D02*
X2755Y196D01*
X1Y195D02*
X8Y195D01*
X2748Y195D02*
X2755Y195D01*
X1Y194D02*
X8Y194D01*
X2748Y194D02*
X2755Y194D01*
X1Y193D02*
X8Y193D01*
X2748Y193D02*
X2755Y193D01*
X1Y192D02*
X8Y192D01*
X2748Y192D02*
X2755Y192D01*
X1Y191D02*
X8Y191D01*
X2748Y191D02*
X2755Y191D01*
X1Y190D02*
X8Y190D01*
X2748Y190D02*
X2755Y190D01*
X1Y189D02*
X8Y189D01*
X2748Y189D02*
X2755Y189D01*
X1Y188D02*
X8Y188D01*
X2748Y188D02*
X2755Y188D01*
X1Y187D02*
X8Y187D01*
X2748Y187D02*
X2755Y187D01*
X1Y186D02*
X8Y186D01*
X2748Y186D02*
X2755Y186D01*
X1Y185D02*
X8Y185D01*
X2748Y185D02*
X2755Y185D01*
X1Y184D02*
X8Y184D01*
X1268Y184D02*
X1268Y184D01*
X2748Y184D02*
X2755Y184D01*
X1Y183D02*
X8Y183D01*
X1267Y183D02*
X1269Y183D01*
X2748Y183D02*
X2755Y183D01*
X1Y182D02*
X8Y182D01*
X1266Y182D02*
X1270Y182D01*
X2748Y182D02*
X2755Y182D01*
X1Y181D02*
X8Y181D01*
X1265Y181D02*
X1271Y181D01*
X2748Y181D02*
X2755Y181D01*
X1Y180D02*
X8Y180D01*
X1264Y180D02*
X1270Y180D01*
X2748Y180D02*
X2755Y180D01*
X1Y179D02*
X8Y179D01*
X1263Y179D02*
X1269Y179D01*
X2748Y179D02*
X2755Y179D01*
X1Y178D02*
X8Y178D01*
X1262Y178D02*
X1268Y178D01*
X2748Y178D02*
X2755Y178D01*
X1Y177D02*
X8Y177D01*
X1261Y177D02*
X1267Y177D01*
X2748Y177D02*
X2755Y177D01*
X1Y176D02*
X8Y176D01*
X1260Y176D02*
X1266Y176D01*
X2748Y176D02*
X2755Y176D01*
X1Y175D02*
X8Y175D01*
X1259Y175D02*
X1265Y175D01*
X2748Y175D02*
X2755Y175D01*
X1Y174D02*
X8Y174D01*
X1258Y174D02*
X1264Y174D01*
X2748Y174D02*
X2755Y174D01*
X1Y173D02*
X8Y173D01*
X1257Y173D02*
X1263Y173D01*
X2748Y173D02*
X2755Y173D01*
X1Y172D02*
X8Y172D01*
X1256Y172D02*
X1262Y172D01*
X2748Y172D02*
X2755Y172D01*
X1Y171D02*
X8Y171D01*
X1255Y171D02*
X1261Y171D01*
X2748Y171D02*
X2755Y171D01*
X1Y170D02*
X8Y170D01*
X1254Y170D02*
X1260Y170D01*
X2748Y170D02*
X2755Y170D01*
X1Y169D02*
X8Y169D01*
X1253Y169D02*
X1259Y169D01*
X2748Y169D02*
X2755Y169D01*
X1Y168D02*
X8Y168D01*
X1252Y168D02*
X1258Y168D01*
X2748Y168D02*
X2755Y168D01*
X1Y167D02*
X8Y167D01*
X1251Y167D02*
X1257Y167D01*
X2748Y167D02*
X2755Y167D01*
X1Y166D02*
X8Y166D01*
X1250Y166D02*
X1256Y166D01*
X2748Y166D02*
X2755Y166D01*
X1Y165D02*
X8Y165D01*
X1249Y165D02*
X1255Y165D01*
X2748Y165D02*
X2755Y165D01*
X1Y164D02*
X8Y164D01*
X1248Y164D02*
X1253Y164D01*
X2748Y164D02*
X2755Y164D01*
X1Y163D02*
X8Y163D01*
X1247Y163D02*
X1252Y163D01*
X2748Y163D02*
X2755Y163D01*
X1Y162D02*
X8Y162D01*
X1246Y162D02*
X1252Y162D01*
X2748Y162D02*
X2755Y162D01*
X1Y161D02*
X8Y161D01*
X1245Y161D02*
X1251Y161D01*
X2748Y161D02*
X2755Y161D01*
X1Y160D02*
X8Y160D01*
X1244Y160D02*
X1250Y160D01*
X2748Y160D02*
X2755Y160D01*
X1Y159D02*
X8Y159D01*
X1243Y159D02*
X1249Y159D01*
X2748Y159D02*
X2755Y159D01*
X1Y158D02*
X8Y158D01*
X1242Y158D02*
X1248Y158D01*
X2748Y158D02*
X2755Y158D01*
X1Y157D02*
X8Y157D01*
X1241Y157D02*
X1247Y157D01*
X2748Y157D02*
X2755Y157D01*
X1Y156D02*
X8Y156D01*
X1240Y156D02*
X1246Y156D01*
X2748Y156D02*
X2755Y156D01*
X1Y155D02*
X8Y155D01*
X1239Y155D02*
X1245Y155D01*
X2748Y155D02*
X2755Y155D01*
X1Y154D02*
X8Y154D01*
X1238Y154D02*
X1244Y154D01*
X2748Y154D02*
X2755Y154D01*
X1Y153D02*
X8Y153D01*
X1237Y153D02*
X1243Y153D01*
X2748Y153D02*
X2755Y153D01*
X1Y152D02*
X8Y152D01*
X1236Y152D02*
X1242Y152D01*
X2748Y152D02*
X2755Y152D01*
X1Y151D02*
X8Y151D01*
X1235Y151D02*
X1241Y151D01*
X2748Y151D02*
X2755Y151D01*
X1Y150D02*
X8Y150D01*
X1234Y150D02*
X1240Y150D01*
X2748Y150D02*
X2755Y150D01*
X1Y149D02*
X8Y149D01*
X1234Y149D02*
X1239Y149D01*
X2748Y149D02*
X2755Y149D01*
X1Y148D02*
X8Y148D01*
X1235Y148D02*
X1238Y148D01*
X2748Y148D02*
X2755Y148D01*
X1Y147D02*
X8Y147D01*
X1236Y147D02*
X1237Y147D01*
X2748Y147D02*
X2755Y147D01*
X1Y146D02*
X8Y146D01*
X2748Y146D02*
X2755Y146D01*
X1Y145D02*
X8Y145D01*
X2748Y145D02*
X2755Y145D01*
X1Y144D02*
X8Y144D01*
X2748Y144D02*
X2755Y144D01*
X1Y143D02*
X8Y143D01*
X2748Y143D02*
X2755Y143D01*
X1Y142D02*
X8Y142D01*
X2748Y142D02*
X2755Y142D01*
X1Y141D02*
X8Y141D01*
X2748Y141D02*
X2755Y141D01*
X1Y140D02*
X8Y140D01*
X2748Y140D02*
X2755Y140D01*
X1Y139D02*
X8Y139D01*
X2748Y139D02*
X2755Y139D01*
X1Y138D02*
X8Y138D01*
X2748Y138D02*
X2755Y138D01*
X1Y137D02*
X8Y137D01*
X2748Y137D02*
X2755Y137D01*
X1Y136D02*
X8Y136D01*
X2748Y136D02*
X2755Y136D01*
X1Y135D02*
X8Y135D01*
X2748Y135D02*
X2755Y135D01*
X1Y134D02*
X8Y134D01*
X2748Y134D02*
X2755Y134D01*
X1Y133D02*
X8Y133D01*
X2748Y133D02*
X2755Y133D01*
X1Y132D02*
X8Y132D01*
X2748Y132D02*
X2755Y132D01*
X1Y131D02*
X8Y131D01*
X2748Y131D02*
X2755Y131D01*
X1Y130D02*
X8Y130D01*
X2748Y130D02*
X2755Y130D01*
X1Y129D02*
X8Y129D01*
X2748Y129D02*
X2755Y129D01*
X1Y128D02*
X8Y128D01*
X2748Y128D02*
X2755Y128D01*
X1Y127D02*
X8Y127D01*
X2748Y127D02*
X2755Y127D01*
X1Y126D02*
X8Y126D01*
X2748Y126D02*
X2755Y126D01*
X1Y125D02*
X8Y125D01*
X2748Y125D02*
X2755Y125D01*
X1Y124D02*
X8Y124D01*
X2748Y124D02*
X2755Y124D01*
X1Y123D02*
X8Y123D01*
X2748Y123D02*
X2755Y123D01*
X1Y122D02*
X8Y122D01*
X2748Y122D02*
X2755Y122D01*
X1Y121D02*
X8Y121D01*
X2748Y121D02*
X2755Y121D01*
X1Y120D02*
X8Y120D01*
X2748Y120D02*
X2755Y120D01*
X1Y119D02*
X8Y119D01*
X2748Y119D02*
X2755Y119D01*
X1Y118D02*
X8Y118D01*
X2748Y118D02*
X2755Y118D01*
X1Y117D02*
X8Y117D01*
X2748Y117D02*
X2755Y117D01*
X1Y116D02*
X8Y116D01*
X2748Y116D02*
X2755Y116D01*
X1Y115D02*
X8Y115D01*
X2748Y115D02*
X2755Y115D01*
X1Y114D02*
X8Y114D01*
X2748Y114D02*
X2755Y114D01*
X1Y113D02*
X8Y113D01*
X2748Y113D02*
X2755Y113D01*
X1Y112D02*
X8Y112D01*
X2748Y112D02*
X2755Y112D01*
X1Y111D02*
X8Y111D01*
X2748Y111D02*
X2755Y111D01*
X1Y110D02*
X8Y110D01*
X2748Y110D02*
X2755Y110D01*
X1Y109D02*
X8Y109D01*
X2748Y109D02*
X2755Y109D01*
X1Y108D02*
X8Y108D01*
X2748Y108D02*
X2755Y108D01*
X1Y107D02*
X8Y107D01*
X2748Y107D02*
X2755Y107D01*
X1Y106D02*
X8Y106D01*
X2748Y106D02*
X2755Y106D01*
X1Y105D02*
X8Y105D01*
X2748Y105D02*
X2755Y105D01*
X1Y104D02*
X8Y104D01*
X2748Y104D02*
X2755Y104D01*
X1Y103D02*
X8Y103D01*
X2748Y103D02*
X2755Y103D01*
X1Y102D02*
X8Y102D01*
X2748Y102D02*
X2755Y102D01*
X1Y101D02*
X8Y101D01*
X2748Y101D02*
X2755Y101D01*
X1Y100D02*
X8Y100D01*
X2748Y100D02*
X2755Y100D01*
X1Y99D02*
X8Y99D01*
X2748Y99D02*
X2755Y99D01*
X1Y98D02*
X8Y98D01*
X2748Y98D02*
X2755Y98D01*
X1Y97D02*
X8Y97D01*
X2748Y97D02*
X2755Y97D01*
X1Y96D02*
X8Y96D01*
X2748Y96D02*
X2755Y96D01*
X1Y95D02*
X8Y95D01*
X2748Y95D02*
X2755Y95D01*
X1Y94D02*
X8Y94D01*
X2748Y94D02*
X2755Y94D01*
X1Y93D02*
X8Y93D01*
X2748Y93D02*
X2755Y93D01*
X1Y92D02*
X8Y92D01*
X2748Y92D02*
X2755Y92D01*
X1Y91D02*
X8Y91D01*
X2748Y91D02*
X2755Y91D01*
X1Y90D02*
X8Y90D01*
X2748Y90D02*
X2755Y90D01*
X1Y89D02*
X8Y89D01*
X2748Y89D02*
X2755Y89D01*
X1Y88D02*
X8Y88D01*
X2748Y88D02*
X2755Y88D01*
X1Y87D02*
X8Y87D01*
X2748Y87D02*
X2755Y87D01*
X1Y86D02*
X8Y86D01*
X2748Y86D02*
X2755Y86D01*
X1Y85D02*
X8Y85D01*
X2748Y85D02*
X2755Y85D01*
X1Y84D02*
X8Y84D01*
X2748Y84D02*
X2755Y84D01*
X1Y83D02*
X8Y83D01*
X2748Y83D02*
X2755Y83D01*
X1Y82D02*
X8Y82D01*
X2748Y82D02*
X2755Y82D01*
X1Y81D02*
X8Y81D01*
X2748Y81D02*
X2755Y81D01*
X1Y80D02*
X8Y80D01*
X2748Y80D02*
X2755Y80D01*
X1Y79D02*
X8Y79D01*
X2748Y79D02*
X2755Y79D01*
X1Y78D02*
X8Y78D01*
X2748Y78D02*
X2755Y78D01*
X1Y77D02*
X8Y77D01*
X2748Y77D02*
X2755Y77D01*
X1Y76D02*
X8Y76D01*
X2748Y76D02*
X2755Y76D01*
X1Y75D02*
X8Y75D01*
X2748Y75D02*
X2755Y75D01*
X1Y74D02*
X8Y74D01*
X2748Y74D02*
X2755Y74D01*
X1Y73D02*
X8Y73D01*
X2748Y73D02*
X2755Y73D01*
X1Y72D02*
X8Y72D01*
X2748Y72D02*
X2755Y72D01*
X1Y71D02*
X8Y71D01*
X2748Y71D02*
X2755Y71D01*
X1Y70D02*
X8Y70D01*
X2748Y70D02*
X2755Y70D01*
X1Y69D02*
X8Y69D01*
X2748Y69D02*
X2755Y69D01*
X1Y68D02*
X8Y68D01*
X2748Y68D02*
X2755Y68D01*
X1Y67D02*
X8Y67D01*
X2748Y67D02*
X2755Y67D01*
X1Y66D02*
X8Y66D01*
X2748Y66D02*
X2755Y66D01*
X1Y65D02*
X8Y65D01*
X2748Y65D02*
X2755Y65D01*
X1Y64D02*
X8Y64D01*
X2748Y64D02*
X2755Y64D01*
X1Y63D02*
X8Y63D01*
X2748Y63D02*
X2755Y63D01*
X1Y62D02*
X8Y62D01*
X2748Y62D02*
X2755Y62D01*
X1Y61D02*
X8Y61D01*
X2748Y61D02*
X2755Y61D01*
X1Y60D02*
X8Y60D01*
X2748Y60D02*
X2755Y60D01*
X1Y59D02*
X8Y59D01*
X2748Y59D02*
X2755Y59D01*
X1Y58D02*
X8Y58D01*
X2748Y58D02*
X2755Y58D01*
X1Y57D02*
X8Y57D01*
X2748Y57D02*
X2755Y57D01*
X1Y56D02*
X8Y56D01*
X2748Y56D02*
X2755Y56D01*
X1Y55D02*
X8Y55D01*
X2748Y55D02*
X2755Y55D01*
X1Y54D02*
X8Y54D01*
X2748Y54D02*
X2755Y54D01*
X1Y53D02*
X8Y53D01*
X2748Y53D02*
X2755Y53D01*
X1Y52D02*
X8Y52D01*
X2748Y52D02*
X2755Y52D01*
X1Y51D02*
X8Y51D01*
X2748Y51D02*
X2755Y51D01*
X1Y50D02*
X8Y50D01*
X2748Y50D02*
X2755Y50D01*
X1Y49D02*
X8Y49D01*
X2748Y49D02*
X2755Y49D01*
X1Y48D02*
X8Y48D01*
X2748Y48D02*
X2755Y48D01*
X1Y47D02*
X8Y47D01*
X2748Y47D02*
X2755Y47D01*
X1Y46D02*
X8Y46D01*
X2748Y46D02*
X2755Y46D01*
X1Y45D02*
X8Y45D01*
X2748Y45D02*
X2755Y45D01*
X1Y44D02*
X8Y44D01*
X2748Y44D02*
X2755Y44D01*
X1Y43D02*
X8Y43D01*
X2748Y43D02*
X2755Y43D01*
X1Y42D02*
X8Y42D01*
X2748Y42D02*
X2755Y42D01*
X1Y41D02*
X8Y41D01*
X2748Y41D02*
X2755Y41D01*
X1Y40D02*
X8Y40D01*
X2748Y40D02*
X2755Y40D01*
X1Y39D02*
X8Y39D01*
X2748Y39D02*
X2755Y39D01*
X1Y38D02*
X8Y38D01*
X2748Y38D02*
X2755Y38D01*
X1Y37D02*
X8Y37D01*
X2748Y37D02*
X2755Y37D01*
X1Y36D02*
X8Y36D01*
X2748Y36D02*
X2755Y36D01*
X1Y35D02*
X8Y35D01*
X2748Y35D02*
X2755Y35D01*
X1Y34D02*
X8Y34D01*
X2748Y34D02*
X2755Y34D01*
X1Y33D02*
X8Y33D01*
X2748Y33D02*
X2755Y33D01*
X1Y32D02*
X8Y32D01*
X2748Y32D02*
X2755Y32D01*
X1Y31D02*
X8Y31D01*
X2748Y31D02*
X2755Y31D01*
X1Y30D02*
X8Y30D01*
X2748Y30D02*
X2755Y30D01*
X1Y29D02*
X8Y29D01*
X2748Y29D02*
X2755Y29D01*
X1Y28D02*
X8Y28D01*
X2748Y28D02*
X2755Y28D01*
X1Y27D02*
X8Y27D01*
X2748Y27D02*
X2755Y27D01*
X1Y26D02*
X8Y26D01*
X2748Y26D02*
X2755Y26D01*
X1Y25D02*
X8Y25D01*
X2748Y25D02*
X2755Y25D01*
X1Y24D02*
X8Y24D01*
X2748Y24D02*
X2755Y24D01*
X1Y23D02*
X8Y23D01*
X2748Y23D02*
X2755Y23D01*
X1Y22D02*
X8Y22D01*
X2748Y22D02*
X2755Y22D01*
X1Y21D02*
X8Y21D01*
X2748Y21D02*
X2755Y21D01*
X1Y20D02*
X8Y20D01*
X2748Y20D02*
X2755Y20D01*
X1Y19D02*
X8Y19D01*
X2748Y19D02*
X2755Y19D01*
X1Y18D02*
X8Y18D01*
X2748Y18D02*
X2755Y18D01*
X1Y17D02*
X8Y17D01*
X2748Y17D02*
X2755Y17D01*
X1Y16D02*
X8Y16D01*
X2748Y16D02*
X2755Y16D01*
X1Y15D02*
X8Y15D01*
X2748Y15D02*
X2755Y15D01*
X1Y14D02*
X8Y14D01*
X2748Y14D02*
X2755Y14D01*
X1Y13D02*
X8Y13D01*
X2748Y13D02*
X2755Y13D01*
X1Y12D02*
X8Y12D01*
X2748Y12D02*
X2755Y12D01*
X1Y11D02*
X8Y11D01*
X2748Y11D02*
X2755Y11D01*
X1Y10D02*
X8Y10D01*
X2748Y10D02*
X2755Y10D01*
X1Y9D02*
X8Y9D01*
X2748Y9D02*
X2755Y9D01*
X1Y8D02*
X2755Y8D01*
X1Y7D02*
X2755Y7D01*
X1Y6D02*
X2755Y6D01*
X1Y5D02*
X2755Y5D01*
X1Y4D02*
X2755Y4D01*
X1Y3D02*
X2755Y3D01*
X1Y2D02*
X2755Y2D01*
X1Y1D02*
X2755Y1D01*
D02*
G04 End of Silk0*
M02*